
<svg width="15px" height="9px" viewBox="0 0 15 9" version="1.1" xmlns="http://www.w3.org/2000/svg" xmlns:xlink="http://www.w3.org/1999/xlink">
    <!-- Generator: Sketch 47.1 (45422) - http://www.bohemiancoding.com/sketch -->
    <desc>Created with Sketch.</desc>
    <defs></defs>
    <g id="Welcome" stroke="none" stroke-width="1" fill="none" fill-rule="evenodd">
        <g id="CTA-Shedule" transform="translate(-693.000000, -43.000000)" fill="#7D7D7D">
            <path d="M708.03125,44.4216021 C708.03125,44.5518633 707.98115,44.6670926 707.880949,44.7672935 L700.876941,51.7713015 C700.77674,51.8715024 700.661511,51.9216021 700.53125,51.9216021 C700.400989,51.9216021 700.28576,51.8715024 700.185559,51.7713015 L693.181551,44.7672935 C693.08135,44.6670926 693.03125,44.5518633 693.03125,44.4216021 C693.03125,44.291341 693.08135,44.1761117 693.181551,44.0759108 L693.933054,43.3244077 C694.033255,43.2242068 694.148484,43.1741071 694.278745,43.1741071 C694.409006,43.1741071 694.524235,43.2242068 694.624436,43.3244077 L700.53125,49.2312214 L706.438064,43.3244077 C706.538265,43.2242068 706.653494,43.1741071 706.783755,43.1741071 C706.914016,43.1741071 707.029245,43.2242068 707.129446,43.3244077 L707.880949,44.0759108 C707.98115,44.1761117 708.03125,44.291341 708.03125,44.4216021 Z" id="angle-down---FontAwesome"></path>
        </g>
    </g>
</svg>