
<svg width="8px" height="15px" viewBox="0 0 8 15" version="1.1" xmlns="http://www.w3.org/2000/svg" xmlns:xlink="http://www.w3.org/1999/xlink">
    <!-- Generator: Sketch 45.1 (43504) - http://www.bohemiancoding.com/sketch -->
    <desc>Created with Sketch.</desc>
    <defs></defs>
    <g id="Page-1" stroke="none" stroke-width="1" fill="none" fill-rule="evenodd">
        <g id="icon-fb" transform="translate(0.513647, -0.571356)" fill-rule="nonzero" fill="#FFFFFF">
            <path d="M7.39931352,0.755761492 L7.39931352,3.00261998 L6.06311362,3.00261998 C5.57515702,3.00261998 5.24607498,3.10474886 5.07585758,3.30900976 C4.90564018,3.51327066 4.82053277,3.81965739 4.82053277,4.22817918 L4.82053277,5.8367256 L7.31420527,5.8367256 L6.98228296,8.35593055 L4.82053277,8.35593055 L4.82053277,14.8156487 L2.21621951,14.8156487 L2.21621951,8.35593055 L0.0459585017,8.35593055 L0.0459585017,5.8367256 L2.21621951,5.8367256 L2.21621951,3.98136512 C2.21621951,2.92601729 2.51125859,2.10756752 3.10134559,1.52599141 C3.69143259,0.944415224 4.47725778,0.653631562 5.45884479,0.653631562 C6.29291009,0.653631562 6.93972652,0.687674531 7.39931352,0.755761492 Z" id="Facebook---FontAwesome"></path>
        </g>
    </g>
</svg>