<?xml version="1.0" encoding="UTF-8" standalone="no"?>
<svg width="18px" height="18px" viewBox="0 0 18 18" version="1.1" xmlns="http://www.w3.org/2000/svg" xmlns:xlink="http://www.w3.org/1999/xlink">
    <!-- Generator: Sketch 43.2 (39069) - http://www.bohemiancoding.com/sketch -->
    <title>pinterest - FontAwesome</title>
    <desc>Created with Sketch.</desc>
    <defs></defs>
    <g id="Welcome" stroke="none" stroke-width="1" fill="none" fill-rule="evenodd">
        <g id="Desktop-Copy" transform="translate(-1233.000000, -7.000000)" fill="#FFFFFF">
            <g id="Top-Nav" transform="translate(0.000000, -4.000000)">
                <g id="Social" transform="translate(1143.000000, 0.000000)">
                    <path d="M107.809524,19.8571429 C107.809524,21.4122102 107.426343,22.8463476 106.65997,24.1595982 C105.893597,25.4728488 104.853801,26.512645 103.540551,27.2790179 C102.2273,28.0453907 100.793163,28.4285714 99.2380952,28.4285714 C98.4121983,28.4285714 97.6011945,28.309525 96.8050595,28.0714286 C97.2440498,27.3794608 97.5342255,26.7693479 97.6755952,26.2410714 C97.7425599,25.988094 97.9434507,25.2031316 98.2782738,23.8861607 C98.4270841,24.1763407 98.6986587,24.4274543 99.093006,24.6395089 C99.4873532,24.8515636 99.9114561,24.9575893 100.365327,24.9575893 C101.26563,24.9575893 102.069193,24.7027555 102.776042,24.1930804 C103.48289,23.6834052 104.02976,22.9821473 104.416667,22.0892857 C104.803573,21.1964241 104.997024,20.1919699 104.997024,19.0758929 C104.997024,18.2276743 104.775672,17.4315513 104.332961,16.6875 C103.890251,15.9434487 103.248516,15.3370559 102.407738,14.8683036 C101.56696,14.3995512 100.618309,14.1651786 99.561756,14.1651786 C98.780502,14.1651786 98.0513427,14.2730644 97.374256,14.4888393 C96.6971692,14.7046142 96.1223982,14.9910696 95.6499256,15.3482143 C95.177453,15.7053589 94.7719511,16.1164411 94.4334077,16.5814732 C94.0948644,17.0465053 93.8456109,17.5282713 93.6856399,18.0267857 C93.5256688,18.5253001 93.4456845,19.023807 93.4456845,19.5223214 C93.4456845,20.2961348 93.5944926,20.9769316 93.8921131,21.5647321 C94.1897336,22.1525327 94.6249971,22.565475 95.1979167,22.8035714 C95.4211321,22.8928576 95.5624997,22.8184536 95.6220238,22.5803571 C95.6369048,22.5282735 95.6666664,22.4129473 95.7113095,22.234375 C95.7559526,22.0558027 95.7857142,21.9441967 95.8005952,21.8995536 C95.8452383,21.7284218 95.8043161,21.5684531 95.6778274,21.4196429 C95.2983612,20.9657715 95.108631,20.4040212 95.108631,19.734375 C95.108631,18.6108575 95.4973919,17.6454653 96.2749256,16.8381696 C97.0524592,16.0308739 98.0699342,15.6272321 99.327381,15.6272321 C100.450898,15.6272321 101.327006,15.9322886 101.955729,16.5424107 C102.584453,17.1525328 102.89881,17.9449356 102.89881,18.9196429 C102.89881,20.1845301 102.643976,21.2596682 102.134301,22.1450893 C101.624625,23.0305104 100.97173,23.4732143 100.175595,23.4732143 C99.7217239,23.4732143 99.3571442,23.3113855 99.0818452,22.9877232 C98.8065462,22.6640609 98.7209816,22.2752999 98.8251488,21.8214286 C98.8846729,21.5610106 98.9832582,21.2131718 99.1209077,20.7779018 C99.2585572,20.3426318 99.3701633,19.9594511 99.4557292,19.6283482 C99.5412951,19.2972454 99.5840774,19.0163702 99.5840774,18.7857143 C99.5840774,18.4136886 99.483632,18.1049119 99.2827381,17.859375 C99.0818442,17.6138381 98.7953888,17.4910714 98.4233631,17.4910714 C97.9620513,17.4910714 97.5714302,17.7031229 97.2514881,18.1272321 C96.931546,18.5513414 96.7715774,19.0796099 96.7715774,19.7120536 C96.7715774,20.255211 96.8645824,20.7090756 97.0505952,21.0736607 L95.9456845,25.7388393 C95.8191958,26.2596752 95.7708332,26.9181508 95.8005952,27.7142857 C94.2678495,27.037199 93.0290226,25.9918225 92.0840774,24.578125 C91.1391322,23.1644275 90.6666667,21.5907825 90.6666667,19.8571429 C90.6666667,18.3020756 91.0498474,16.8679381 91.8162202,15.5546875 C92.5825931,14.2414369 93.6223893,13.2016407 94.9356399,12.4352679 C96.2488905,11.668895 97.6830279,11.2857143 99.2380952,11.2857143 C100.793163,11.2857143 102.2273,11.668895 103.540551,12.4352679 C104.853801,13.2016407 105.893597,14.2414369 106.65997,15.5546875 C107.426343,16.8679381 107.809524,18.3020756 107.809524,19.8571429 Z" id="pinterest---FontAwesome"></path>
                </g>
            </g>
        </g>
    </g>
</svg>