
<svg width="87px" height="77px" viewBox="0 0 87 77" version="1.1" xmlns="http://www.w3.org/2000/svg" xmlns:xlink="http://www.w3.org/1999/xlink">
    <!-- Generator: Sketch 43.1 (39012) - http://www.bohemiancoding.com/sketch -->
    <desc>Created with Sketch.</desc>
    <defs></defs>
    <g id="Welcome" stroke="none" stroke-width="1" fill="none" fill-rule="evenodd" opacity="0.2">
        <g id="Desktop-Home" transform="translate(-37.000000, -1809.000000)" fill="#FFFFFF">
            <g id="testimonial-block" transform="translate(0.000000, 1772.000000)">
                <path d="M120.316406,37.7011719 L120.316406,48.5410156 C116.89842,50.3964937 114.334969,53.7411868 112.625977,58.5751953 C110.916984,63.4092039 110.0625,69.7812104 110.0625,77.6914062 L110.0625,81.0605469 L123.978516,81.0605469 L123.978516,113.580078 L91.4589844,113.580078 L91.4589844,89.2636719 C91.4589844,74.5175044 93.8515386,62.8476992 98.6367188,54.2539062 C103.421899,45.6601133 110.648389,40.1425903 120.316406,37.7011719 Z M66.1171875,37.7011719 L66.1171875,48.5410156 C62.6992017,50.3964937 60.1357507,53.7411868 58.4267578,58.5751953 C56.7177649,63.4092039 55.8632812,69.7812104 55.8632812,77.6914062 L55.8632812,81.0605469 L69.7792969,81.0605469 L69.7792969,113.580078 L37.2597656,113.580078 L37.2597656,89.2636719 C37.2597656,74.5175044 39.6523198,62.8476992 44.4375,54.2539062 C49.2226802,45.6601133 56.4491704,40.1425903 66.1171875,37.7011719 Z" id="“"></path>
            </g>
        </g>
    </g>
</svg>