
<svg width="87px" height="77px" viewBox="0 0 87 77" version="1.1" xmlns="http://www.w3.org/2000/svg" xmlns:xlink="http://www.w3.org/1999/xlink">
    <!-- Generator: Sketch 43.1 (39012) - http://www.bohemiancoding.com/sketch -->
    <desc>Created with Sketch.</desc>
    <defs></defs>
    <g id="Welcome" stroke="none" stroke-width="1" fill="none" fill-rule="evenodd" opacity="0.2">
        <g id="Desktop-Home" transform="translate(-708.000000, -2062.000000)" fill="#FFFFFF">
            <g id="testimonial-block" transform="translate(0.000000, 1772.000000)">
                <path d="M791.316406,290.701172 L791.316406,301.541016 C787.89842,303.396494 785.334969,306.741187 783.625977,311.575195 C781.916984,316.409204 781.0625,322.78121 781.0625,330.691406 L781.0625,334.060547 L794.978516,334.060547 L794.978516,366.580078 L762.458984,366.580078 L762.458984,342.263672 C762.458984,327.517504 764.851539,315.847699 769.636719,307.253906 C774.421899,298.660113 781.648389,293.14259 791.316406,290.701172 Z M737.117188,290.701172 L737.117188,301.541016 C733.699202,303.396494 731.135751,306.741187 729.426758,311.575195 C727.717765,316.409204 726.863281,322.78121 726.863281,330.691406 L726.863281,334.060547 L740.779297,334.060547 L740.779297,366.580078 L708.259766,366.580078 L708.259766,342.263672 C708.259766,327.517504 710.65232,315.847699 715.4375,307.253906 C720.22268,298.660113 727.44917,293.14259 737.117188,290.701172 Z" id="“" transform="translate(751.619141, 328.640625) scale(-1, -1) translate(-751.619141, -328.640625) "></path>
            </g>
        </g>
    </g>
</svg>