<?xml version="1.0" encoding="UTF-8" standalone="no"?>
<svg width="18px" height="18px" viewBox="0 0 18 18" version="1.1" xmlns="http://www.w3.org/2000/svg" xmlns:xlink="http://www.w3.org/1999/xlink">
    <!-- Generator: Sketch 43.2 (39069) - http://www.bohemiancoding.com/sketch -->
    <title>Instagram - FontAwesome</title>
    <desc>Created with Sketch.</desc>
    <defs></defs>
    <g id="Welcome" stroke="none" stroke-width="1" fill="none" fill-rule="evenodd">
        <g id="Desktop-Copy" transform="translate(-1272.000000, -7.000000)" fill="#FFFFFF">
            <g id="Top-Nav" transform="translate(0.000000, -4.000000)">
                <g id="Social" transform="translate(1143.000000, 0.000000)">
                    <path d="M140.428571,19.8571429 C140.428571,19.0684484 140.149556,18.3950921 139.591518,17.8370536 C139.033479,17.2790151 138.360123,17 137.571429,17 C136.782734,17 136.109378,17.2790151 135.551339,17.8370536 C134.993301,18.3950921 134.714286,19.0684484 134.714286,19.8571429 C134.714286,20.6458373 134.993301,21.3191936 135.551339,21.8772321 C136.109378,22.4352706 136.782734,22.7142857 137.571429,22.7142857 C138.360123,22.7142857 139.033479,22.4352706 139.591518,21.8772321 C140.149556,21.3191936 140.428571,20.6458373 140.428571,19.8571429 Z M141.96875,19.8571429 C141.96875,21.0773871 141.540927,22.1153231 140.685268,22.9709821 C139.829609,23.8266412 138.791673,24.2544643 137.571429,24.2544643 C136.351184,24.2544643 135.313248,23.8266412 134.457589,22.9709821 C133.60193,22.1153231 133.174107,21.0773871 133.174107,19.8571429 C133.174107,18.6368987 133.60193,17.5989626 134.457589,16.7433036 C135.313248,15.8876445 136.351184,15.4598214 137.571429,15.4598214 C138.791673,15.4598214 139.829609,15.8876445 140.685268,16.7433036 C141.540927,17.5989626 141.96875,18.6368987 141.96875,19.8571429 Z M143.174107,15.28125 C143.174107,15.5639895 143.073662,15.8058026 142.872768,16.0066964 C142.671874,16.2075903 142.430061,16.3080357 142.147321,16.3080357 C141.864582,16.3080357 141.622769,16.2075903 141.421875,16.0066964 C141.220981,15.8058026 141.120536,15.5639895 141.120536,15.28125 C141.120536,14.9985105 141.220981,14.7566974 141.421875,14.5558036 C141.622769,14.3549097 141.864582,14.2544643 142.147321,14.2544643 C142.430061,14.2544643 142.671874,14.3549097 142.872768,14.5558036 C143.073662,14.7566974 143.174107,14.9985105 143.174107,15.28125 Z M137.571429,12.8258929 C137.519345,12.8258929 137.23475,12.8240328 136.717634,12.8203125 C136.200518,12.8165922 135.808037,12.8165922 135.540179,12.8203125 C135.27232,12.8240328 134.913321,12.8351934 134.46317,12.8537946 C134.013019,12.8723959 133.629838,12.9095979 133.313616,12.9654018 C132.997394,13.0212056 132.7314,13.0900294 132.515625,13.171875 C132.143599,13.3206853 131.816222,13.5364569 131.533482,13.8191964 C131.250743,14.1019359 131.034971,14.4293136 130.886161,14.8013393 C130.804315,15.0171142 130.735491,15.2831085 130.679688,15.5993304 C130.623884,15.9155522 130.586682,16.2987329 130.56808,16.7488839 C130.549479,17.199035 130.538318,17.5580344 130.534598,17.8258929 C130.530878,18.0937513 130.530878,18.4862325 130.534598,19.0033482 C130.538318,19.5204639 130.540179,19.8050593 130.540179,19.8571429 C130.540179,19.9092265 130.538318,20.1938218 130.534598,20.7109375 C130.530878,21.2280532 130.530878,21.6205344 130.534598,21.8883929 C130.538318,22.1562513 130.549479,22.5152507 130.56808,22.9654018 C130.586682,23.4155528 130.623884,23.7987335 130.679688,24.1149554 C130.735491,24.4311772 130.804315,24.6971715 130.886161,24.9129464 C131.034971,25.2849721 131.250743,25.6123498 131.533482,25.8950893 C131.816222,26.1778288 132.143599,26.3936004 132.515625,26.5424107 C132.7314,26.6242564 132.997394,26.6930801 133.313616,26.7488839 C133.629838,26.8046878 134.013019,26.8418898 134.46317,26.8604911 C134.913321,26.8790924 135.27232,26.890253 135.540179,26.8939732 C135.808037,26.8976935 136.200518,26.8976935 136.717634,26.8939732 C137.23475,26.890253 137.519345,26.8883929 137.571429,26.8883929 C137.623512,26.8883929 137.908108,26.890253 138.425223,26.8939732 C138.942339,26.8976935 139.33482,26.8976935 139.602679,26.8939732 C139.870537,26.890253 140.229536,26.8790924 140.679688,26.8604911 C141.129839,26.8418898 141.513019,26.8046878 141.829241,26.7488839 C142.145463,26.6930801 142.411457,26.6242564 142.627232,26.5424107 C142.999258,26.3936004 143.326635,26.1778288 143.609375,25.8950893 C143.892115,25.6123498 144.107886,25.2849721 144.256696,24.9129464 C144.338542,24.6971715 144.407366,24.4311772 144.46317,24.1149554 C144.518973,23.7987335 144.556176,23.4155528 144.574777,22.9654018 C144.593378,22.5152507 144.604539,22.1562513 144.608259,21.8883929 C144.611979,21.6205344 144.611979,21.2280532 144.608259,20.7109375 C144.604539,20.1938218 144.602679,19.9092265 144.602679,19.8571429 C144.602679,19.8050593 144.604539,19.5204639 144.608259,19.0033482 C144.611979,18.4862325 144.611979,18.0937513 144.608259,17.8258929 C144.604539,17.5580344 144.593378,17.199035 144.574777,16.7488839 C144.556176,16.2987329 144.518973,15.9155522 144.46317,15.5993304 C144.407366,15.2831085 144.338542,15.0171142 144.256696,14.8013393 C144.107886,14.4293136 143.892115,14.1019359 143.609375,13.8191964 C143.326635,13.5364569 142.999258,13.3206853 142.627232,13.171875 C142.411457,13.0900294 142.145463,13.0212056 141.829241,12.9654018 C141.513019,12.9095979 141.129839,12.8723959 140.679688,12.8537946 C140.229536,12.8351934 139.870537,12.8240328 139.602679,12.8203125 C139.33482,12.8165922 138.942339,12.8165922 138.425223,12.8203125 C137.908108,12.8240328 137.623512,12.8258929 137.571429,12.8258929 Z M146.142857,19.8571429 C146.142857,21.5610204 146.124256,22.7403241 146.087054,23.3950893 C146.012648,24.9427161 145.551344,26.1406208 144.703125,26.9888393 C143.854906,27.8370578 142.657002,28.2983627 141.109375,28.3727679 C140.45461,28.4099704 139.275306,28.4285714 137.571429,28.4285714 C135.867551,28.4285714 134.688247,28.4099704 134.033482,28.3727679 C132.485855,28.2983627 131.287951,27.8370578 130.439732,26.9888393 C129.591514,26.1406208 129.130209,24.9427161 129.055804,23.3950893 C129.018601,22.7403241 129,21.5610204 129,19.8571429 C129,18.1532653 129.018601,16.9739616 129.055804,16.3191964 C129.130209,14.7715696 129.591514,13.573665 130.439732,12.7254464 C131.287951,11.8772279 132.485855,11.415923 134.033482,11.3415179 C134.688247,11.3043153 135.867551,11.2857143 137.571429,11.2857143 C139.275306,11.2857143 140.45461,11.3043153 141.109375,11.3415179 C142.657002,11.415923 143.854906,11.8772279 144.703125,12.7254464 C145.551344,13.573665 146.012648,14.7715696 146.087054,16.3191964 C146.124256,16.9739616 146.142857,18.1532653 146.142857,19.8571429 Z" id="Instagram---FontAwesome"></path>
                </g>
            </g>
        </g>
    </g>
</svg>