<?xml version="1.0" encoding="UTF-8" standalone="no"?>
<svg width="19px" height="15px" viewBox="0 0 19 15" version="1.1" xmlns="http://www.w3.org/2000/svg" xmlns:xlink="http://www.w3.org/1999/xlink">
    <!-- Generator: Sketch 43.2 (39069) - http://www.bohemiancoding.com/sketch -->
    <title>Twitter - FontAwesome</title>
    <desc>Created with Sketch.</desc>
    <defs></defs>
    <g id="Welcome" stroke="none" stroke-width="1" fill="none" fill-rule="evenodd">
        <g id="Desktop-Copy" transform="translate(-1194.000000, -8.000000)" fill="#FFFFFF">
            <g id="Top-Nav" transform="translate(0.000000, -4.000000)">
                <g id="Social" transform="translate(1143.000000, 0.000000)">
                    <path d="M69.4136905,14.4107143 C68.9151761,15.1398846 68.3125035,15.7611581 67.6056548,16.2745536 C67.6130953,16.3787208 67.6168155,16.5349692 67.6168155,16.7433036 C67.6168155,17.7105703 67.4754478,18.6759624 67.1927083,19.6395089 C66.9099688,20.6030554 66.4802856,21.5275253 65.9036458,22.4129464 C65.327006,23.2983675 64.640629,24.0814698 63.844494,24.7622768 C63.0483591,25.4430838 62.0885473,25.9862331 60.9650298,26.3917411 C59.8415122,26.7972491 58.6398874,27 57.360119,27 C55.3437399,27 53.4985203,26.4605709 51.8244048,25.3816964 C52.0848227,25.4114585 52.3749984,25.4263393 52.6949405,25.4263393 C54.369056,25.4263393 55.8608565,24.9129516 57.1703869,23.8861607 C56.389133,23.8712797 55.6897352,23.6313267 55.0721726,23.1662946 C54.45461,22.7012626 54.0305071,22.1078905 53.7998512,21.3861607 C54.0453881,21.4233633 54.2723204,21.4419643 54.4806548,21.4419643 C54.8005968,21.4419643 55.1168139,21.4010421 55.4293155,21.3191964 C54.595978,21.1480646 53.9058807,20.7332622 53.359003,20.0747768 C52.8121252,19.4162914 52.5386905,18.6517901 52.5386905,17.78125 L52.5386905,17.7366071 C53.0446454,18.0193467 53.5877947,18.1718749 54.1681548,18.1941964 C53.6770809,17.8668138 53.2864598,17.4389907 52.9962798,16.9107143 C52.7060997,16.3824378 52.5610119,15.8095269 52.5610119,15.1919643 C52.5610119,14.5371991 52.7247007,13.9308064 53.0520833,13.3727679 C53.9523855,14.4814044 55.0479846,15.3686723 56.3389137,16.0345982 C57.6298428,16.7005242 59.0118974,17.0706842 60.485119,17.1450893 C60.4255949,16.8623498 60.3958333,16.5870549 60.3958333,16.3191964 C60.3958333,15.3221676 60.7473923,14.4721017 61.4505208,13.7689732 C62.1536493,13.0658447 63.0037153,12.7142857 64.000744,12.7142857 C65.0424159,12.7142857 65.9203833,13.0937462 66.6346726,13.8526786 C67.4456886,13.6964278 68.2083298,13.4062521 68.922619,12.9821429 C68.6473201,13.8378019 68.1190515,14.4999977 67.3377976,14.96875 C68.0297654,14.8943449 68.7217227,14.7083348 69.4136905,14.4107143 Z" id="Twitter---FontAwesome"></path>
                </g>
            </g>
        </g>
    </g>
</svg>