
<svg width="34px" height="37px" viewBox="0 0 34 37" version="1.1" xmlns="http://www.w3.org/2000/svg" xmlns:xlink="http://www.w3.org/1999/xlink">
    <!-- Generator: Sketch 44.1 (41455) - http://www.bohemiancoding.com/sketch -->
    <desc>Created with Sketch.</desc>
    <defs></defs>
    <g id="Welcome" stroke="none" stroke-width="1" fill="none" fill-rule="evenodd">
        <g id="Desktop-Copy" transform="translate(-1385.000000, -944.000000)" fill="#B5B5B5">
            <path d="M1387.57143,977.571429 L1415.85714,977.571429 L1415.85714,957 L1387.57143,957 L1387.57143,977.571429 Z M1395.28571,953.142857 L1395.28571,947.357143 C1395.28571,947.169642 1395.22545,947.015626 1395.10491,946.895089 C1394.98437,946.774553 1394.83036,946.714286 1394.64286,946.714286 L1393.35714,946.714286 C1393.16964,946.714286 1393.01563,946.774553 1392.89509,946.895089 C1392.77455,947.015626 1392.71429,947.169642 1392.71429,947.357143 L1392.71429,953.142857 C1392.71429,953.330358 1392.77455,953.484374 1392.89509,953.604911 C1393.01563,953.725447 1393.16964,953.785714 1393.35714,953.785714 L1394.64286,953.785714 C1394.83036,953.785714 1394.98437,953.725447 1395.10491,953.604911 C1395.22545,953.484374 1395.28571,953.330358 1395.28571,953.142857 Z M1410.71429,953.142857 L1410.71429,947.357143 C1410.71429,947.169642 1410.65402,947.015626 1410.53348,946.895089 C1410.41295,946.774553 1410.25893,946.714286 1410.07143,946.714286 L1408.78571,946.714286 C1408.59821,946.714286 1408.4442,946.774553 1408.32366,946.895089 C1408.20312,947.015626 1408.14286,947.169642 1408.14286,947.357143 L1408.14286,953.142857 C1408.14286,953.330358 1408.20312,953.484374 1408.32366,953.604911 C1408.4442,953.725447 1408.59821,953.785714 1408.78571,953.785714 L1410.07143,953.785714 C1410.25893,953.785714 1410.41295,953.725447 1410.53348,953.604911 C1410.65402,953.484374 1410.71429,953.330358 1410.71429,953.142857 Z M1418.42857,951.857143 L1418.42857,977.571429 C1418.42857,978.267861 1418.17411,978.870533 1417.66518,979.379464 C1417.15625,979.888395 1416.55357,980.142857 1415.85714,980.142857 L1387.57143,980.142857 C1386.875,980.142857 1386.27232,979.888395 1385.76339,979.379464 C1385.25446,978.870533 1385,978.267861 1385,977.571429 L1385,951.857143 C1385,951.160711 1385.25446,950.558038 1385.76339,950.049107 C1386.27232,949.540176 1386.875,949.285714 1387.57143,949.285714 L1390.14286,949.285714 L1390.14286,947.357143 C1390.14286,946.47321 1390.45759,945.716521 1391.08705,945.087054 C1391.71652,944.457586 1392.47321,944.142857 1393.35714,944.142857 L1394.64286,944.142857 C1395.52679,944.142857 1396.28348,944.457586 1396.91295,945.087054 C1397.54241,945.716521 1397.85714,946.47321 1397.85714,947.357143 L1397.85714,949.285714 L1405.57143,949.285714 L1405.57143,947.357143 C1405.57143,946.47321 1405.88616,945.716521 1406.51562,945.087054 C1407.14509,944.457586 1407.90178,944.142857 1408.78571,944.142857 L1410.07143,944.142857 C1410.95536,944.142857 1411.71205,944.457586 1412.34152,945.087054 C1412.97099,945.716521 1413.28571,946.47321 1413.28571,947.357143 L1413.28571,949.285714 L1415.85714,949.285714 C1416.55357,949.285714 1417.15625,949.540176 1417.66518,950.049107 C1418.17411,950.558038 1418.42857,951.160711 1418.42857,951.857143 Z" id="calendar-o---FontAwesome"></path>
        </g>
    </g>
</svg>