
<svg width="42px" height="34px" viewBox="0 0 42 34" version="1.1" xmlns="http://www.w3.org/2000/svg" xmlns:xlink="http://www.w3.org/1999/xlink">
    <!-- Generator: Sketch 44.1 (41455) - http://www.bohemiancoding.com/sketch -->
    <desc>Created with Sketch.</desc>
    <defs></defs>
    <g id="Welcome" stroke="none" stroke-width="1" fill="none" fill-rule="evenodd">
        <g id="Desktop-Copy" transform="translate(-1385.000000, -1124.000000)" fill="#B6B6B6">
            <path d="M1396.65179,1132.40402 C1396.65179,1131.85491 1396.48438,1131.41295 1396.14955,1131.07812 C1395.81473,1130.7433 1395.37277,1130.57589 1394.82366,1130.57589 C1394.24776,1130.57589 1393.73884,1130.74665 1393.29688,1131.08817 C1392.85491,1131.42969 1392.63393,1131.8683 1392.63393,1132.40402 C1392.63393,1132.92634 1392.85491,1133.35826 1393.29688,1133.69978 C1393.73884,1134.0413 1394.24776,1134.21205 1394.82366,1134.21205 C1395.37277,1134.21205 1395.81473,1134.04799 1396.14955,1133.71987 C1396.48438,1133.39174 1396.65179,1132.95313 1396.65179,1132.40402 Z M1411.57812,1142.58929 C1411.57812,1142.21428 1411.40737,1141.87947 1411.06585,1141.58482 C1410.72433,1141.29018 1410.28572,1141.14286 1409.75,1141.14286 C1409.38839,1141.14286 1409.05692,1141.29353 1408.75558,1141.59487 C1408.45424,1141.89621 1408.30357,1142.22768 1408.30357,1142.58929 C1408.30357,1142.96429 1408.45424,1143.30245 1408.75558,1143.60379 C1409.05692,1143.90514 1409.38839,1144.0558 1409.75,1144.0558 C1410.28572,1144.0558 1410.72433,1143.90848 1411.06585,1143.61384 C1411.40737,1143.31919 1411.57812,1142.97768 1411.57812,1142.58929 Z M1406.83705,1132.40402 C1406.83705,1131.85491 1406.67299,1131.41295 1406.34487,1131.07812 C1406.01674,1130.7433 1405.57813,1130.57589 1405.02902,1130.57589 C1404.45312,1130.57589 1403.9442,1130.74665 1403.50223,1131.08817 C1403.06027,1131.42969 1402.83929,1131.8683 1402.83929,1132.40402 C1402.83929,1132.92634 1403.06027,1133.35826 1403.50223,1133.69978 C1403.9442,1134.0413 1404.45312,1134.21205 1405.02902,1134.21205 C1405.57813,1134.21205 1406.01674,1134.04799 1406.34487,1133.71987 C1406.67299,1133.39174 1406.83705,1132.95313 1406.83705,1132.40402 Z M1419.59375,1142.58929 C1419.59375,1142.21428 1419.41964,1141.87947 1419.07143,1141.58482 C1418.72321,1141.29018 1418.28795,1141.14286 1417.76562,1141.14286 C1417.40402,1141.14286 1417.07255,1141.29353 1416.77121,1141.59487 C1416.46986,1141.89621 1416.3192,1142.22768 1416.3192,1142.58929 C1416.3192,1142.96429 1416.46986,1143.30245 1416.77121,1143.60379 C1417.07255,1143.90514 1417.40402,1144.0558 1417.76562,1144.0558 C1418.28795,1144.0558 1418.72321,1143.90848 1419.07143,1143.61384 C1419.41964,1143.31919 1419.59375,1142.97768 1419.59375,1142.58929 Z M1414.25,1134.61384 C1413.83482,1134.56027 1413.36607,1134.53348 1412.84375,1134.53348 C1410.58035,1134.53348 1408.49778,1135.0491 1406.59598,1136.08036 C1404.69419,1137.11161 1403.19755,1138.5078 1402.10603,1140.26897 C1401.0145,1142.03014 1400.46875,1143.95535 1400.46875,1146.04464 C1400.46875,1147.08929 1400.62277,1148.10714 1400.9308,1149.09821 C1400.46205,1149.13839 1400.0067,1149.15848 1399.56473,1149.15848 C1399.21652,1149.15848 1398.8817,1149.14844 1398.56027,1149.12835 C1398.23884,1149.10826 1397.87054,1149.06473 1397.45536,1148.99777 C1397.04018,1148.9308 1396.74219,1148.88393 1396.56138,1148.85714 C1396.38058,1148.83036 1396.01563,1148.76005 1395.46652,1148.64621 C1394.91741,1148.53237 1394.58259,1148.46205 1394.46205,1148.43527 L1389.37946,1150.98661 L1390.82589,1146.60714 C1386.94194,1143.88838 1385,1140.60716 1385,1136.76339 C1385,1134.49999 1385.6529,1132.41742 1386.95871,1130.51562 C1388.26452,1128.61383 1390.03235,1127.11719 1392.26228,1126.02567 C1394.4922,1124.93415 1396.92633,1124.38839 1399.56473,1124.38839 C1401.92189,1124.38839 1404.14843,1124.83035 1406.24442,1125.71429 C1408.34041,1126.59822 1410.09486,1127.8203 1411.50781,1129.38058 C1412.92077,1130.94086 1413.83482,1132.68526 1414.25,1134.61384 Z M1426.14286,1145.88393 C1426.14286,1147.4509 1425.68416,1148.94754 1424.76674,1150.37388 C1423.84933,1151.80023 1422.60715,1153.09598 1421.04018,1154.26116 L1422.14509,1157.89732 L1418.14732,1155.70759 C1416.13838,1156.20313 1414.67858,1156.45089 1413.76786,1156.45089 C1411.50445,1156.45089 1409.42188,1155.9788 1407.52009,1155.0346 C1405.61829,1154.0904 1404.12166,1152.80804 1403.03013,1151.1875 C1401.93861,1149.56696 1401.39286,1147.79912 1401.39286,1145.88393 C1401.39286,1143.96874 1401.93861,1142.2009 1403.03013,1140.58036 C1404.12166,1138.95981 1405.61829,1137.67746 1407.52009,1136.73326 C1409.42188,1135.78906 1411.50445,1135.31696 1413.76786,1135.31696 C1415.92412,1135.31696 1417.95312,1135.78906 1419.85491,1136.73326 C1421.75671,1137.67746 1423.28013,1138.96316 1424.42522,1140.5904 C1425.57032,1142.21764 1426.14286,1143.98213 1426.14286,1145.88393 Z" id="weixin---FontAwesome"></path>
        </g>
    </g>
</svg>