
<svg width="15px" height="21px" viewBox="0 0 15 21" version="1.1" xmlns="http://www.w3.org/2000/svg" xmlns:xlink="http://www.w3.org/1999/xlink">
    <!-- Generator: Sketch 45.2 (43514) - http://www.bohemiancoding.com/sketch -->
    <desc>Created with Sketch.</desc>
    <defs></defs>
    <g id="Page-1" stroke="none" stroke-width="1" fill="none" fill-rule="evenodd">
        <g id="icon-phone" transform="translate(0.121834, 0.167940)" fill-rule="nonzero" fill="#B6B6B6">
            <path d="M8.57193857,18.374324 C8.57193857,18.0234237 8.427227,17.7230363 8.13779948,17.4731528 C7.84837195,17.2232692 7.50044831,17.0983293 7.09401816,17.0983293 C6.687588,17.0983293 6.33966438,17.2232692 6.05023684,17.4731528 C5.76080931,17.7230363 5.61609771,18.0234237 5.61609771,18.374324 C5.61609771,18.7252243 5.76080931,19.0256117 6.05023684,19.2754953 C6.33966438,19.5253789 6.687588,19.6503188 7.09401816,19.6503188 C7.50044831,19.6503188 7.84837195,19.5253789 8.13779948,19.2754953 C8.427227,19.0256117 8.57193857,18.7252243 8.57193857,18.374324 Z M12.4145318,15.8223346 L12.4145318,4.59358101 C12.4145318,4.45534756 12.3560313,4.33572425 12.2390288,4.23470749 C12.1220261,4.13369074 11.9834725,4.08318312 11.8233636,4.08318312 L2.36467272,4.08318312 C2.20456387,4.08318312 2.06601021,4.13369074 1.94900759,4.23470749 C1.83200497,4.33572425 1.77350454,4.45534756 1.77350454,4.59358101 L1.77350454,15.8223346 C1.77350454,15.960568 1.83200497,16.0801913 1.94900759,16.1812081 C2.06601021,16.2822249 2.20456387,16.3327325 2.36467272,16.3327325 L11.8233636,16.3327325 C11.9834725,16.3327325 12.1220261,16.2822249 12.2390288,16.1812081 C12.3560313,16.0801913 12.4145318,15.960568 12.4145318,15.8223346 Z M8.86752268,2.29679051 C8.86752268,2.12665702 8.76899566,2.04159156 8.57193857,2.04159156 L5.61609771,2.04159156 C5.41904066,2.04159156 5.32051362,2.12665702 5.32051362,2.29679051 C5.32051362,2.46692399 5.41904066,2.55198945 5.61609771,2.55198945 L8.57193857,2.55198945 C8.76899566,2.55198945 8.86752268,2.46692399 8.86752268,2.29679051 Z M14.1880364,2.04159156 L14.1880364,18.374324 C14.1880364,18.9272579 13.9540346,19.4057511 13.4860241,19.8098181 C13.0180137,20.2138851 12.463799,20.4159156 11.8233636,20.4159156 L2.36467272,20.4159156 C1.72423732,20.4159156 1.1700227,20.2138851 0.702012214,19.8098181 C0.234001732,19.4057511 0,18.9272579 0,18.374324 L0,2.04159156 C0,1.48865775 0.234001732,1.01016451 0.702012214,0.606097495 C1.1700227,0.202030478 1.72423732,0 2.36467272,0 L11.8233636,0 C12.463799,0 13.0180137,0.202030478 13.4860241,0.606097495 C13.9540346,1.01016451 14.1880364,1.48865775 14.1880364,2.04159156 Z" id="mobile---FontAwesome"></path>
        </g>
    </g>
</svg>