<?xml version="1.0" encoding="UTF-8" standalone="no"?>
<svg width="130px" height="5px" viewBox="0 0 130 5" version="1.1" xmlns="http://www.w3.org/2000/svg" xmlns:xlink="http://www.w3.org/1999/xlink">
    <!-- Generator: Sketch 44.1 (41455) - http://www.bohemiancoding.com/sketch -->
    <title>Group 6</title>
    <desc>Created with Sketch.</desc>
    <defs></defs>
    <g id="Welcome" stroke="none" stroke-width="1" fill="none" fill-rule="evenodd">
        <g id="Desktop-Copy" transform="translate(-737.000000, -1383.000000)" fill="#EC0810">
            <g id="Group-6" transform="translate(737.000000, 1383.000000)">
                <path d="M35.8945587,2.74453151 C35.8945587,3.80708982 35.0375107,4.66784101 33.9775697,4.66784101 C32.9185033,4.66784101 32.0588317,3.80708982 32.0588317,2.74453151 C32.0588317,1.68109578 32.9185033,0.820344589 33.9775697,0.820344589 C35.0375107,0.820344589 35.8945587,1.68109578 35.8945587,2.74453151" id="Fill-34"></path>
                <path d="M67.0005026,2.74453151 C67.0005026,3.80708982 66.1434546,4.66784101 65.0843882,4.66784101 C64.0244472,4.66784101 63.1647756,3.80708982 63.1647756,2.74453151 C63.1647756,1.68109578 64.0244472,0.820344589 65.0843882,0.820344589 C66.1434546,0.820344589 67.0005026,1.68109578 67.0005026,2.74453151" id="Fill-36"></path>
                <path d="M98.1072336,2.74453151 C98.1072336,3.80708982 97.2493111,4.66784101 96.1902446,4.66784101 C95.1311782,4.66784101 94.2706321,3.80708982 94.2706321,2.74453151 C94.2706321,1.68109578 95.1311782,0.820344589 96.1902446,0.820344589 C97.2493111,0.820344589 98.1072336,1.68109578 98.1072336,2.74453151" id="Fill-38"></path>
                <path d="M129.213177,2.74453151 C129.213177,3.80708982 128.35613,4.66784101 127.296189,4.66784101 C126.237122,4.66784101 125.377451,3.80708982 125.377451,2.74453151 C125.377451,1.68109578 126.237122,0.820344589 127.296189,0.820344589 C128.35613,0.820344589 129.213177,1.68109578 129.213177,2.74453151" id="Fill-40"></path>
                <path d="M4.78861476,2.74453151 C4.78861476,3.80708982 3.93069225,4.66784101 2.87162583,4.66784101 C1.81255941,4.66784101 0.952013284,3.80708982 0.952013284,2.74453151 C0.952013284,1.68109578 1.81255941,0.820344589 2.87162583,0.820344589 C3.93069225,0.820344589 4.78861476,1.68109578 4.78861476,2.74453151" id="Fill-42"></path>
            </g>
        </g>
    </g>
</svg>