
<svg width="34px" height="29px" viewBox="0 0 34 29" version="1.1" xmlns="http://www.w3.org/2000/svg" xmlns:xlink="http://www.w3.org/1999/xlink">
    <!-- Generator: Sketch 44.1 (41455) - http://www.bohemiancoding.com/sketch -->
    <desc>Created with Sketch.</desc>
    <defs></defs>
    <g id="Welcome" stroke="none" stroke-width="1" fill="none" fill-rule="evenodd">
        <g id="Desktop-Copy" transform="translate(-1386.000000, -1039.000000)" fill="#B6B6B6">
            <path d="M1398.85714,1065 C1398.85714,1065.69643 1398.60268,1066.2991 1398.09375,1066.80804 C1397.58482,1067.31697 1396.98215,1067.57143 1396.28571,1067.57143 C1395.58928,1067.57143 1394.98661,1067.31697 1394.47768,1066.80804 C1393.96875,1066.2991 1393.71429,1065.69643 1393.71429,1065 C1393.71429,1064.30357 1393.96875,1063.7009 1394.47768,1063.19196 C1394.98661,1062.68303 1395.58928,1062.42857 1396.28571,1062.42857 C1396.98215,1062.42857 1397.58482,1062.68303 1398.09375,1063.19196 C1398.60268,1063.7009 1398.85714,1064.30357 1398.85714,1065 Z M1416.85714,1065 C1416.85714,1065.69643 1416.60268,1066.2991 1416.09375,1066.80804 C1415.58482,1067.31697 1414.98215,1067.57143 1414.28571,1067.57143 C1413.58928,1067.57143 1412.98661,1067.31697 1412.47768,1066.80804 C1411.96875,1066.2991 1411.71429,1065.69643 1411.71429,1065 C1411.71429,1064.30357 1411.96875,1063.7009 1412.47768,1063.19196 C1412.98661,1062.68303 1413.58928,1062.42857 1414.28571,1062.42857 C1414.98215,1062.42857 1415.58482,1062.68303 1416.09375,1063.19196 C1416.60268,1063.7009 1416.85714,1064.30357 1416.85714,1065 Z M1419.42857,1043.14286 L1419.42857,1053.42857 C1419.42857,1053.75 1419.31808,1054.0346 1419.0971,1054.28237 C1418.87611,1054.53014 1418.60491,1054.67411 1418.28348,1054.71429 L1397.31027,1057.16518 C1397.48438,1057.96875 1397.57143,1058.4375 1397.57143,1058.57143 C1397.57143,1058.78572 1397.41072,1059.21428 1397.08929,1059.85714 L1415.57143,1059.85714 C1415.91964,1059.85714 1416.22098,1059.98437 1416.47545,1060.23884 C1416.72991,1060.4933 1416.85714,1060.79464 1416.85714,1061.14286 C1416.85714,1061.49107 1416.72991,1061.79241 1416.47545,1062.04687 C1416.22098,1062.30134 1415.91964,1062.42857 1415.57143,1062.42857 L1395,1062.42857 C1394.65178,1062.42857 1394.35045,1062.30134 1394.09598,1062.04687 C1393.84152,1061.79241 1393.71429,1061.49107 1393.71429,1061.14286 C1393.71429,1060.99553 1393.76786,1060.7846 1393.875,1060.51004 C1393.98214,1060.23549 1394.08929,1059.99442 1394.19643,1059.78683 C1394.30357,1059.57924 1394.44754,1059.31139 1394.62835,1058.98326 C1394.80915,1058.65513 1394.91295,1058.45759 1394.93973,1058.39062 L1391.38393,1041.85714 L1387.28571,1041.85714 C1386.9375,1041.85714 1386.63616,1041.72991 1386.3817,1041.47545 C1386.12723,1041.22098 1386,1040.91964 1386,1040.57143 C1386,1040.22321 1386.12723,1039.92188 1386.3817,1039.66741 C1386.63616,1039.41295 1386.9375,1039.28571 1387.28571,1039.28571 L1392.42857,1039.28571 C1392.64286,1039.28571 1392.8337,1039.32924 1393.00112,1039.41629 C1393.16853,1039.50335 1393.29911,1039.60714 1393.39286,1039.72768 C1393.48661,1039.84821 1393.57366,1040.01228 1393.65402,1040.21987 C1393.73438,1040.42746 1393.78795,1040.60156 1393.81473,1040.74219 C1393.84152,1040.88281 1393.87835,1041.08036 1393.92522,1041.33482 C1393.9721,1041.58929 1394.00223,1041.76339 1394.01562,1041.85714 L1418.14286,1041.85714 C1418.49107,1041.85714 1418.79241,1041.98437 1419.04688,1042.23884 C1419.30134,1042.4933 1419.42857,1042.79464 1419.42857,1043.14286 Z" id="shopping-cart---FontAwesome"></path>
        </g>
    </g>
</svg>