<?xml version="1.0" encoding="UTF-8" standalone="no"?>
<svg width="237px" height="103px" viewBox="0 0 237 103" version="1.1" xmlns="http://www.w3.org/2000/svg" xmlns:xlink="http://www.w3.org/1999/xlink">
    <!-- Generator: Sketch 43.2 (39069) - http://www.bohemiancoding.com/sketch -->
    <title>Logo dark</title>
    <desc>Created with Sketch.</desc>
    <defs>
        <polygon id="path-1" points="0 51.1413875 0 0.501885508 100.946258 0.501885508 100.946258 101.780889 0 101.780889"></polygon>
    </defs>
    <g id="Welcome" stroke="none" stroke-width="1" fill="none" fill-rule="evenodd">
        <g id="Desktop-Copy" transform="translate(-150.000000, -34.000000)">
            <g id="Logo-dark" transform="translate(150.000000, 34.000000)">
                <path d="M50.4731292,101.586365 C22.9557675,101.586365 0.568450185,79.1243562 0.568450185,51.5171436 C0.568450185,23.9090535 22.9557675,1.44879957 50.4731292,1.44879957 C77.9904908,1.44879957 100.377808,23.9090535 100.377808,51.5171436 C100.377808,79.1243562 77.9904908,101.586365 50.4731292,101.586365" id="Fill-1" fill="#010101"></path>
                <g id="Group-5" transform="translate(0.000000, 0.375537)">
                    <mask id="mask-2" fill="white">
                        <use xlink:href="#path-1"></use>
                    </mask>
                    <g id="Clip-4"></g>
                    <path d="M50.4731292,0.501797766 C22.6418081,0.501797766 0,23.2200138 0,51.1413436 C0,79.0644283 22.6418081,101.780889 50.4731292,101.780889 C78.3044502,101.780889 100.946258,79.0644283 100.946258,51.1413436 C100.946258,23.2200138 78.3044502,0.501797766 50.4731292,0.501797766 M50.4731292,1.64244665 C77.7202583,1.64244665 99.8093579,23.804377 99.8093579,51.1413436 C99.8093579,78.4791876 77.7202583,100.640241 50.4731292,100.640241 C23.226,100.640241 1.13690037,78.4791876 1.13690037,51.1413436 C1.13690037,23.804377 23.226,1.64244665 50.4731292,1.64244665" id="Fill-3" fill="#FFFFFF" mask="url(#mask-2)"></path>
                </g>
                <g id="novo" transform="translate(18.112132, 29.600433)" fill="#FFFFFF">
                    <g id="Group-2">
                        <path d="M2.30983452,3.26850561 C2.79782714,2.62535512 3.34966109,2.07784366 3.9662109,1.62684864 C4.58276072,1.17585362 5.24915924,0.834536378 5.96890463,0.602896913 C6.68690094,0.370380026 7.43113341,0.254560293 8.20160205,0.254560293 C9.43382714,0.254560293 10.4605356,0.473915847 11.282602,0.911749534 C12.1037939,1.34958322 12.7588234,1.92955931 13.2468161,2.65080037 C13.7339342,3.37204143 14.081126,4.18277956 14.2857681,5.08389218 C14.4921592,5.98675964 14.5944803,6.90103359 14.5944803,7.82759145 L14.5944803,18.5681168 L13.7470522,18.5681168 L13.7470522,7.90480461 C13.7470522,7.18444097 13.6700928,6.41143199 13.516174,5.58753253 C13.3622552,4.76275565 13.0736574,4.01694676 12.6495061,3.34571876 C12.2262294,2.67624561 11.6551556,2.11645024 10.9362847,1.66545522 C10.2174139,1.2144602 9.30526994,0.988962689 8.20160205,0.988962689 C7.22561681,0.988962689 6.30822566,1.18901495 5.44855408,1.58824206 C4.58800795,1.98746917 3.84377548,2.56042588 3.21498212,3.30711219 C2.58531422,4.05467592 2.08507806,4.96280791 1.71252456,6.03063075 C1.34084559,7.10020843 1.15544338,8.31719305 1.15544338,9.68246202 L1.15544338,18.5681168 L0.308015332,18.5681168 L0.308015332,5.27780249 C0.308015332,4.99439511 0.301019022,4.64693591 0.287900941,4.23454747 C0.27478286,3.82303645 0.262539317,3.40362863 0.250295775,2.97895628 C0.236303155,2.55516135 0.217063302,2.14803744 0.191701679,1.76197166 C0.166340055,1.37590589 0.140978432,1.05389193 0.114742269,0.795929801 L0.962170313,0.795929801 C0.987531937,1.05389193 1.00677179,1.37590589 1.01988987,1.76197166 C1.03300795,2.14803744 1.04525149,2.56656784 1.05836958,3.01756286 C1.07148766,3.46855787 1.0837312,3.90726898 1.09684928,4.33106391 C1.10996736,4.75573627 1.11608913,5.13653751 1.11608913,5.47083537 L1.19392308,5.47083537 C1.45016293,4.64693591 1.8218419,3.91253352 2.30983452,3.26850561" id="Fill-6"></path>
                        <path d="M33.73516,9.64359221 C33.73516,8.45907222 33.5427615,7.33860405 33.1579644,6.2821877 C32.7722928,5.22664877 32.2143371,4.30535544 31.4823482,3.52006256 C30.7512338,2.73476967 29.865326,2.11618701 28.8254995,1.66519199 C27.7856729,1.21507439 26.6111674,0.989576884 25.3011083,0.989576884 C23.9919238,0.989576884 22.8235401,1.21507439 21.7977061,1.66519199 C20.7701231,2.11618701 19.8912116,2.73476967 19.1592227,3.52006256 C18.4281083,4.30535544 17.8692781,5.22664877 17.484481,6.2821877 C17.099684,7.33860405 16.9072854,8.45907222 16.9072854,9.64359221 C16.9072854,10.8544349 17.099684,11.9880644 17.484481,13.0436033 C17.8692781,14.1000197 18.4281083,15.0204356 19.1592227,15.8057284 C19.8912116,16.5918988 20.7701231,17.2166234 21.7977061,17.6799023 C22.8235401,18.1440587 23.9919238,18.3756981 25.3011083,18.3756981 C26.6111674,18.3756981 27.7856729,18.1440587 28.8254995,17.6799023 C29.865326,17.2166234 30.7512338,16.5918988 31.4823482,15.8057284 C32.2143371,15.0204356 32.7722928,14.1000197 33.1579644,13.0436033 C33.5427615,11.9880644 33.73516,10.8544349 33.73516,9.64359221 M34.582588,9.64359221 C34.582588,11.0343064 34.3578316,12.3092009 33.9083187,13.4682757 C33.4596803,14.6282278 32.8238906,15.6258569 32.0026987,16.4629177 C31.1806323,17.3017333 30.1985253,17.9510258 29.0563777,18.4143047 C27.9142301,18.8775836 26.6618906,19.1092231 25.3011083,19.1092231 C23.9412006,19.1092231 22.6958574,18.8775836 21.5668279,18.4143047 C20.4360493,17.9510258 19.4609386,17.3017333 18.6397467,16.4629177 C17.8176803,15.6258569 17.1818906,14.6282278 16.7341268,13.4682757 C16.2837393,12.3092009 16.0598574,11.0343064 16.0598574,9.64359221 C16.0598574,8.252878 16.2837393,6.9850029 16.7341268,5.83821206 C17.1818906,4.69142122 17.8176803,3.70695349 18.6397467,2.88217661 C19.4609386,2.05739972 20.4360493,1.41424924 21.5668279,0.950970307 C22.6958574,0.486813954 23.9412006,0.255174488 25.3011083,0.255174488 C26.6618906,0.255174488 27.9142301,0.486813954 29.0563777,0.950970307 C30.1985253,1.41424924 31.1806323,2.05739972 32.0026987,2.88217661 C32.8238906,3.70695349 33.4596803,4.69142122 33.9083187,5.83821206 C34.3578316,6.9850029 34.582588,8.252878 34.582588,9.64359221" id="Fill-8"></path>
                        <polygon id="Fill-10" points="41.5787231 18.5685555 40.4628116 18.5685555 33.4918633 0.79549109 34.4162508 0.79549109 41.0015275 17.7183334 41.0784869 17.7183334 47.4320109 0.79549109 48.3563984 0.79549109"></polygon>
                        <path d="M65.3987973,9.64359221 C65.3987973,8.45907222 65.2063987,7.33860405 64.8216017,6.2821877 C64.4359301,5.22664877 63.8779744,4.30535544 63.1459854,3.52006256 C62.4148711,2.73476967 61.5289633,2.11618701 60.4891367,1.66519199 C59.4493102,1.21507439 58.2748046,0.989576884 56.9647456,0.989576884 C55.6555611,0.989576884 54.4871773,1.21507439 53.4613434,1.66519199 C52.4337604,2.11618701 51.5548489,2.73476967 50.82286,3.52006256 C50.0917456,4.30535544 49.5329153,5.22664877 49.1481183,6.2821877 C48.7633212,7.33860405 48.5709227,8.45907222 48.5709227,9.64359221 C48.5709227,10.8544349 48.7633212,11.9880644 49.1481183,13.0436033 C49.5329153,14.1000197 50.0917456,15.0204356 50.82286,15.8057284 C51.5548489,16.5918988 52.4337604,17.2166234 53.4613434,17.6799023 C54.4871773,18.1440587 55.6555611,18.3756981 56.9647456,18.3756981 C58.2748046,18.3756981 59.4493102,18.1440587 60.4891367,17.6799023 C61.5289633,17.2166234 62.4148711,16.5918988 63.1459854,15.8057284 C63.8779744,15.0204356 64.4359301,14.1000197 64.8216017,13.0436033 C65.2063987,11.9880644 65.3987973,10.8544349 65.3987973,9.64359221 M66.2462253,9.64359221 C66.2462253,11.0343064 66.0214688,12.3092009 65.5719559,13.4682757 C65.1233175,14.6282278 64.4875279,15.6258569 63.666336,16.4629177 C62.8442696,17.3017333 61.8621626,17.9510258 60.720015,18.4143047 C59.5778674,18.8775836 58.3255279,19.1092231 56.9647456,19.1092231 C55.6048378,19.1092231 54.3594947,18.8775836 53.2304651,18.4143047 C52.0996865,17.9510258 51.1245758,17.3017333 50.303384,16.4629177 C49.4813175,15.6258569 48.8455279,14.6282278 48.397764,13.4682757 C47.9473766,12.3092009 47.7234947,11.0343064 47.7234947,9.64359221 C47.7234947,8.252878 47.9473766,6.9850029 48.397764,5.83821206 C48.8455279,4.69142122 49.4813175,3.70695349 50.303384,2.88217661 C51.1245758,2.05739972 52.0996865,1.41424924 53.2304651,0.950970307 C54.3594947,0.486813954 55.6048378,0.255174488 56.9647456,0.255174488 C58.3255279,0.255174488 59.5778674,0.486813954 60.720015,0.950970307 C61.8621626,1.41424924 62.8442696,2.05739972 63.666336,2.88217661 C64.4875279,3.70695349 65.1233175,4.69142122 65.5719559,5.83821206 C66.0214688,6.9850029 66.2462253,8.252878 66.2462253,9.64359221" id="Fill-12"></path>
                        <path d="M12.5250592,40.2548353 C12.5250592,41.0532895 12.3702659,41.7683886 12.0633028,42.3992552 C11.7545906,43.0309992 11.3374356,43.5644719 10.8109633,44.0023056 C10.284491,44.4410167 9.67493747,44.7753146 8.98142825,45.006954 C8.28879356,45.2394709 7.54456109,45.3544132 6.74873083,45.3544132 C5.43867179,45.3544132 4.25104817,45.1034705 3.18585998,44.601585 C2.12154633,44.0996995 1.24176035,43.3591551 0.549125664,42.3799519 L1.24176035,41.9175504 C2.52470869,43.7188982 4.3734836,44.6208883 6.786336,44.6208883 C7.35128803,44.6208883 7.92236183,44.5305138 8.50043194,44.3506422 C9.07850205,44.1707707 9.60409983,43.8996472 10.0789744,43.5390267 C10.5538489,43.1784061 10.9395205,42.7274111 11.2342401,42.186919 C11.5289596,41.6455495 11.6776312,41.0278443 11.6776312,40.3320485 C11.6776312,39.508149 11.4904799,38.8386758 11.1196755,38.323629 C10.747122,37.8085822 10.2783692,37.3953163 9.71341718,37.0873411 C9.14933969,36.7776111 8.52579356,36.5266683 7.84540242,36.332758 C7.16501127,36.1406025 6.53009614,35.9659955 5.93978249,35.813324 C5.29699651,35.6316976 4.69443932,35.4325228 4.12948729,35.2131672 C3.56453526,34.9946891 3.07042087,34.7112817 2.64714411,34.3629451 C2.22386736,34.0154859 1.88979356,33.5837942 1.64667179,33.0696248 C1.40180094,32.5537005 1.28024006,31.9096726 1.28024006,31.1366636 C1.28024006,30.3654095 1.43415887,29.6950589 1.74199651,29.1273667 C2.04983415,28.5614294 2.46086736,28.0911311 2.9742216,27.7173492 C3.48757585,27.3444448 4.07176773,27.0610374 4.72679725,26.8671271 C5.38095223,26.6740942 6.04210352,26.5775778 6.71025113,26.5775778 C9.12222899,26.5775778 10.9333987,27.4409612 12.1402622,29.1659733 L11.4082733,29.5915231 C10.8170851,28.8185141 10.149812,28.2455574 9.40557954,27.872653 C8.66047253,27.4988711 7.76232124,27.3119802 6.71025113,27.3119802 C6.22225851,27.3119802 5.70890426,27.376032 5.16931386,27.5050131 C4.63059799,27.6339941 4.13560906,27.8463303 3.68697068,28.1420216 C3.23745777,28.4385903 2.86490426,28.8316755 2.5701847,29.3203996 C2.27459061,29.8108787 2.12679356,30.4022612 2.12679356,31.098057 C2.12679356,31.8701886 2.24922899,32.4887713 2.49322529,32.9529276 C2.7372216,33.4162065 3.07654264,33.7899884 3.51381201,34.0733958 C3.94933231,34.3568032 4.47667917,34.5945846 5.09235445,34.7884949 C5.70890426,34.9806504 6.38842087,35.1684187 7.13352788,35.3482903 C7.8270371,35.5281618 8.50043194,35.740498 9.15458692,35.9861762 C9.81049098,36.230977 10.3876865,36.5336877 10.8879227,36.8934308 C11.3890334,37.2549287 11.786074,37.7050463 12.0816681,38.2455384 C12.3763877,38.7869079 12.5250592,39.4572585 12.5250592,40.2548353" id="Fill-14"></path>
                        <path d="M26.9745382,35.1933375 L24.2398556,35.1933375 C23.2647449,35.1933375 22.2380364,35.2512474 21.1597301,35.3670671 C20.0814238,35.4828868 19.0923205,35.7233005 18.1941692,36.0821662 C17.2960179,36.4436642 16.5579072,36.958711 15.9807116,37.6273067 C15.4026415,38.2976573 15.1131692,39.1987699 15.1131692,40.331522 C15.1131692,41.1571763 15.2732098,41.8459528 15.5950401,42.3996062 C15.9151212,42.9532596 16.3261544,43.3981127 16.8272651,43.7315331 C17.3283758,44.0667084 17.8802098,44.313264 18.482767,44.4659355 C19.0853242,44.6203618 19.6581471,44.6984524 20.1968629,44.6984524 C21.5060474,44.6984524 22.5965973,44.4536516 23.4702615,43.96405 C24.3421766,43.4744484 25.0426821,42.8514786 25.5691544,42.0898761 C26.0947522,41.3309059 26.4603094,40.4929677 26.665826,39.5786937 C26.8713426,38.6644198 26.9745382,37.771204 26.9745382,36.8929043 L26.9745382,35.1933375 Z M27.8219663,40.8737689 C27.8219663,41.5432421 27.8534496,42.2583412 27.9181655,43.0173114 C27.9811323,43.7771591 28.0519699,44.4018837 28.1298039,44.8914853 L27.3208556,44.8914853 C27.2692578,44.6344006 27.2307781,44.3176511 27.2054164,43.9447467 C27.1791803,43.5718423 27.1476969,43.1848991 27.1092172,42.7856719 C27.0707375,42.3864448 27.0445013,41.9933597 27.0322578,41.6081713 C27.0191397,41.2203507 27.0130179,40.8992142 27.0130179,40.641252 L26.8975788,40.641252 C26.38335,42.2653606 25.4983168,43.4683064 24.2398556,44.2535993 C22.9822688,45.0397696 21.6346046,45.4319774 20.1968629,45.4319774 C19.4779921,45.4319774 18.765243,45.329319 18.0594902,45.1231247 C17.3528629,44.9169305 16.7170733,44.6080779 16.1529958,44.1956895 C15.5880437,43.7841784 15.1332836,43.2550928 14.7860917,42.6119423 C14.4397744,41.9687919 14.2666157,41.2080668 14.2666157,40.331522 C14.2666157,39.0706663 14.5936932,38.0528565 15.2487227,37.2798475 C15.9028777,36.5068386 16.7170733,35.9075592 17.693933,35.4828868 C18.6690437,35.0582145 19.7149921,34.7818265 20.8326526,34.6528454 C21.9494386,34.5238643 22.9691508,34.4598125 23.8944127,34.4598125 L26.9745382,34.4598125 L26.9745382,33.0296143 C26.9745382,31.0466401 26.4471913,29.598016 25.3951212,28.6828646 C24.3421766,27.7694681 22.9691508,27.3132086 21.2751692,27.3132086 C20.2222246,27.3132086 19.2401175,27.5044866 18.3288482,27.8914298 C17.4175788,28.2774956 16.6025087,28.7934198 15.8836378,29.4365703 L15.4218814,28.7793811 C16.2430733,28.0590175 17.1735825,27.511506 18.2134091,27.1377241 C19.2532356,26.7656971 20.2738223,26.5779287 21.2751692,26.5779287 C23.3032246,26.5779287 24.9010068,27.0991175 26.0693906,28.1423726 C27.2377744,29.1856276 27.8219663,30.8272845 27.8219663,33.0682209 L27.8219663,40.8737689 Z" id="Fill-16"></path>
                        <path d="M33.0331677,29.5911721 C33.5211604,28.9480216 34.0729943,28.4005102 34.6895441,27.9495152 C35.3060939,27.4985201 35.9724925,27.1572029 36.6922378,26.9255634 C37.4102342,26.6930465 38.1544666,26.5772268 38.9249353,26.5772268 C40.1571604,26.5772268 41.1838688,26.7965824 42.0059353,27.2344161 C42.8271271,27.6722497 43.4821567,28.2522258 43.9701493,28.9734669 C44.4572674,29.6947079 44.8044592,30.5054461 45.0091013,31.4065587 C45.2154925,32.3094262 45.3178135,33.2237001 45.3178135,34.150258 L45.3178135,44.8907833 L44.4703854,44.8907833 L44.4703854,34.2274711 C44.4703854,33.5071075 44.393426,32.7340985 44.2395072,31.910199 C44.0855884,31.0854222 43.7969906,30.3396133 43.3728393,29.6683853 C42.9495626,28.9989121 42.3784888,28.4391168 41.6596179,27.9881217 C40.9407471,27.5371267 40.0286032,27.3116292 38.9249353,27.3116292 C37.94895,27.3116292 37.0315589,27.5116815 36.1718873,27.9109086 C35.3113412,28.3101357 34.5671087,28.8830924 33.9383153,29.6297787 C33.3086474,30.3773424 32.8084113,31.2854744 32.4358578,32.3532973 C32.0641788,33.422875 31.8787766,34.6398596 31.8787766,36.0051285 L31.8787766,44.8907833 L31.0313485,44.8907833 L31.0313485,31.600469 C31.0313485,31.3170616 31.0243522,30.9696024 31.0112342,30.557214 C30.9981161,30.145703 30.9858725,29.7262951 30.973629,29.3016228 C30.9596364,28.8778279 30.9403965,28.470704 30.9150349,28.0846382 C30.8896733,27.6985724 30.8643116,27.3765585 30.8380755,27.1185963 L31.6855035,27.1185963 C31.7108651,27.3765585 31.730105,27.6985724 31.7432231,28.0846382 C31.7563412,28.470704 31.7685847,28.8892344 31.7817028,29.3402294 C31.7948209,29.7912244 31.8070644,30.2299355 31.8201825,30.6537304 C31.8333006,31.0784028 31.8394223,31.459204 31.8394223,31.7935019 L31.9172563,31.7935019 C32.1734961,30.9696024 32.5451751,30.2352 33.0331677,29.5911721" id="Fill-18"></path>
                        <path d="M65.4346533,35.9662587 C65.4346533,34.7817387 65.2422548,33.6612706 64.8574578,32.6048542 C64.4717862,31.5493153 63.9138305,30.628022 63.1818415,29.8427291 C62.4507271,29.0574362 61.5648194,28.4388535 60.5249928,27.9878585 C59.4851663,27.5377409 58.3106607,27.3122434 57.0006017,27.3122434 C55.6914172,27.3122434 54.5230334,27.5377409 53.4971995,27.9878585 C52.4696164,28.4388535 51.590705,29.0574362 50.8587161,29.8427291 C50.1276017,30.628022 49.5687714,31.5493153 49.1839744,32.6048542 C48.7991773,33.6612706 48.6067788,34.7817387 48.6067788,35.9662587 C48.6067788,37.1771014 48.7991773,38.3107309 49.1839744,39.3662698 C49.5687714,40.4226862 50.1276017,41.3431021 50.8587161,42.128395 C51.590705,42.9145653 52.4696164,43.5392899 53.4971995,44.0025688 C54.5230334,44.4667252 55.6914172,44.6983646 57.0006017,44.6983646 C58.3106607,44.6983646 59.4851663,44.4667252 60.5249928,44.0025688 C61.5648194,43.5392899 62.4507271,42.9145653 63.1818415,42.128395 C63.9138305,41.3431021 64.4717862,40.4226862 64.8574578,39.3662698 C65.2422548,38.3107309 65.4346533,37.1771014 65.4346533,35.9662587 M66.2820814,35.9662587 C66.2820814,37.3569729 66.0573249,38.6318674 65.607812,39.7909422 C65.1591736,40.9508943 64.523384,41.9485234 63.7021921,42.7855842 C62.8801257,43.6243998 61.8980187,44.2736923 60.7558711,44.7369712 C59.6137234,45.2002501 58.361384,45.4318896 57.0006017,45.4318896 C55.6406939,45.4318896 54.3953508,45.2002501 53.2663212,44.7369712 C52.1355426,44.2736923 51.1604319,43.6243998 50.3392401,42.7855842 C49.5171736,41.9485234 48.881384,40.9508943 48.4336201,39.7909422 C47.9832327,38.6318674 47.7593508,37.3569729 47.7593508,35.9662587 C47.7593508,34.5755445 47.9832327,33.3076694 48.4336201,32.1608786 C48.881384,31.0140877 49.5171736,30.02962 50.3392401,29.2048431 C51.1604319,28.3800662 52.1355426,27.7369158 53.2663212,27.2736368 C54.3953508,26.8094805 55.6406939,26.577841 57.0006017,26.577841 C58.361384,26.577841 59.6137234,26.8094805 60.7558711,27.2736368 C61.8980187,27.7369158 62.8801257,28.3800662 63.7021921,29.2048431 C64.523384,30.02962 65.1591736,31.0140877 65.607812,32.1608786 C66.0573249,33.3076694 66.2820814,34.5755445 66.2820814,35.9662587" id="Fill-20"></path>
                    </g>
                    <g id="Group-2-Copy">
                        <path d="M2.30983452,3.26850561 C2.79782714,2.62535512 3.34966109,2.07784366 3.9662109,1.62684864 C4.58276072,1.17585362 5.24915924,0.834536378 5.96890463,0.602896913 C6.68690094,0.370380026 7.43113341,0.254560293 8.20160205,0.254560293 C9.43382714,0.254560293 10.4605356,0.473915847 11.282602,0.911749534 C12.1037939,1.34958322 12.7588234,1.92955931 13.2468161,2.65080037 C13.7339342,3.37204143 14.081126,4.18277956 14.2857681,5.08389218 C14.4921592,5.98675964 14.5944803,6.90103359 14.5944803,7.82759145 L14.5944803,18.5681168 L13.7470522,18.5681168 L13.7470522,7.90480461 C13.7470522,7.18444097 13.6700928,6.41143199 13.516174,5.58753253 C13.3622552,4.76275565 13.0736574,4.01694676 12.6495061,3.34571876 C12.2262294,2.67624561 11.6551556,2.11645024 10.9362847,1.66545522 C10.2174139,1.2144602 9.30526994,0.988962689 8.20160205,0.988962689 C7.22561681,0.988962689 6.30822566,1.18901495 5.44855408,1.58824206 C4.58800795,1.98746917 3.84377548,2.56042588 3.21498212,3.30711219 C2.58531422,4.05467592 2.08507806,4.96280791 1.71252456,6.03063075 C1.34084559,7.10020843 1.15544338,8.31719305 1.15544338,9.68246202 L1.15544338,18.5681168 L0.308015332,18.5681168 L0.308015332,5.27780249 C0.308015332,4.99439511 0.301019022,4.64693591 0.287900941,4.23454747 C0.27478286,3.82303645 0.262539317,3.40362863 0.250295775,2.97895628 C0.236303155,2.55516135 0.217063302,2.14803744 0.191701679,1.76197166 C0.166340055,1.37590589 0.140978432,1.05389193 0.114742269,0.795929801 L0.962170313,0.795929801 C0.987531937,1.05389193 1.00677179,1.37590589 1.01988987,1.76197166 C1.03300795,2.14803744 1.04525149,2.56656784 1.05836958,3.01756286 C1.07148766,3.46855787 1.0837312,3.90726898 1.09684928,4.33106391 C1.10996736,4.75573627 1.11608913,5.13653751 1.11608913,5.47083537 L1.19392308,5.47083537 C1.45016293,4.64693591 1.8218419,3.91253352 2.30983452,3.26850561" id="Fill-6"></path>
                        <path d="M33.73516,9.64359221 C33.73516,8.45907222 33.5427615,7.33860405 33.1579644,6.2821877 C32.7722928,5.22664877 32.2143371,4.30535544 31.4823482,3.52006256 C30.7512338,2.73476967 29.865326,2.11618701 28.8254995,1.66519199 C27.7856729,1.21507439 26.6111674,0.989576884 25.3011083,0.989576884 C23.9919238,0.989576884 22.8235401,1.21507439 21.7977061,1.66519199 C20.7701231,2.11618701 19.8912116,2.73476967 19.1592227,3.52006256 C18.4281083,4.30535544 17.8692781,5.22664877 17.484481,6.2821877 C17.099684,7.33860405 16.9072854,8.45907222 16.9072854,9.64359221 C16.9072854,10.8544349 17.099684,11.9880644 17.484481,13.0436033 C17.8692781,14.1000197 18.4281083,15.0204356 19.1592227,15.8057284 C19.8912116,16.5918988 20.7701231,17.2166234 21.7977061,17.6799023 C22.8235401,18.1440587 23.9919238,18.3756981 25.3011083,18.3756981 C26.6111674,18.3756981 27.7856729,18.1440587 28.8254995,17.6799023 C29.865326,17.2166234 30.7512338,16.5918988 31.4823482,15.8057284 C32.2143371,15.0204356 32.7722928,14.1000197 33.1579644,13.0436033 C33.5427615,11.9880644 33.73516,10.8544349 33.73516,9.64359221 M34.582588,9.64359221 C34.582588,11.0343064 34.3578316,12.3092009 33.9083187,13.4682757 C33.4596803,14.6282278 32.8238906,15.6258569 32.0026987,16.4629177 C31.1806323,17.3017333 30.1985253,17.9510258 29.0563777,18.4143047 C27.9142301,18.8775836 26.6618906,19.1092231 25.3011083,19.1092231 C23.9412006,19.1092231 22.6958574,18.8775836 21.5668279,18.4143047 C20.4360493,17.9510258 19.4609386,17.3017333 18.6397467,16.4629177 C17.8176803,15.6258569 17.1818906,14.6282278 16.7341268,13.4682757 C16.2837393,12.3092009 16.0598574,11.0343064 16.0598574,9.64359221 C16.0598574,8.252878 16.2837393,6.9850029 16.7341268,5.83821206 C17.1818906,4.69142122 17.8176803,3.70695349 18.6397467,2.88217661 C19.4609386,2.05739972 20.4360493,1.41424924 21.5668279,0.950970307 C22.6958574,0.486813954 23.9412006,0.255174488 25.3011083,0.255174488 C26.6618906,0.255174488 27.9142301,0.486813954 29.0563777,0.950970307 C30.1985253,1.41424924 31.1806323,2.05739972 32.0026987,2.88217661 C32.8238906,3.70695349 33.4596803,4.69142122 33.9083187,5.83821206 C34.3578316,6.9850029 34.582588,8.252878 34.582588,9.64359221" id="Fill-8"></path>
                        <polygon id="Fill-10" points="41.5787231 18.5685555 40.4628116 18.5685555 33.4918633 0.79549109 34.4162508 0.79549109 41.0015275 17.7183334 41.0784869 17.7183334 47.4320109 0.79549109 48.3563984 0.79549109"></polygon>
                        <path d="M65.3987973,9.64359221 C65.3987973,8.45907222 65.2063987,7.33860405 64.8216017,6.2821877 C64.4359301,5.22664877 63.8779744,4.30535544 63.1459854,3.52006256 C62.4148711,2.73476967 61.5289633,2.11618701 60.4891367,1.66519199 C59.4493102,1.21507439 58.2748046,0.989576884 56.9647456,0.989576884 C55.6555611,0.989576884 54.4871773,1.21507439 53.4613434,1.66519199 C52.4337604,2.11618701 51.5548489,2.73476967 50.82286,3.52006256 C50.0917456,4.30535544 49.5329153,5.22664877 49.1481183,6.2821877 C48.7633212,7.33860405 48.5709227,8.45907222 48.5709227,9.64359221 C48.5709227,10.8544349 48.7633212,11.9880644 49.1481183,13.0436033 C49.5329153,14.1000197 50.0917456,15.0204356 50.82286,15.8057284 C51.5548489,16.5918988 52.4337604,17.2166234 53.4613434,17.6799023 C54.4871773,18.1440587 55.6555611,18.3756981 56.9647456,18.3756981 C58.2748046,18.3756981 59.4493102,18.1440587 60.4891367,17.6799023 C61.5289633,17.2166234 62.4148711,16.5918988 63.1459854,15.8057284 C63.8779744,15.0204356 64.4359301,14.1000197 64.8216017,13.0436033 C65.2063987,11.9880644 65.3987973,10.8544349 65.3987973,9.64359221 M66.2462253,9.64359221 C66.2462253,11.0343064 66.0214688,12.3092009 65.5719559,13.4682757 C65.1233175,14.6282278 64.4875279,15.6258569 63.666336,16.4629177 C62.8442696,17.3017333 61.8621626,17.9510258 60.720015,18.4143047 C59.5778674,18.8775836 58.3255279,19.1092231 56.9647456,19.1092231 C55.6048378,19.1092231 54.3594947,18.8775836 53.2304651,18.4143047 C52.0996865,17.9510258 51.1245758,17.3017333 50.303384,16.4629177 C49.4813175,15.6258569 48.8455279,14.6282278 48.397764,13.4682757 C47.9473766,12.3092009 47.7234947,11.0343064 47.7234947,9.64359221 C47.7234947,8.252878 47.9473766,6.9850029 48.397764,5.83821206 C48.8455279,4.69142122 49.4813175,3.70695349 50.303384,2.88217661 C51.1245758,2.05739972 52.0996865,1.41424924 53.2304651,0.950970307 C54.3594947,0.486813954 55.6048378,0.255174488 56.9647456,0.255174488 C58.3255279,0.255174488 59.5778674,0.486813954 60.720015,0.950970307 C61.8621626,1.41424924 62.8442696,2.05739972 63.666336,2.88217661 C64.4875279,3.70695349 65.1233175,4.69142122 65.5719559,5.83821206 C66.0214688,6.9850029 66.2462253,8.252878 66.2462253,9.64359221" id="Fill-12"></path>
                        <path d="M12.5250592,40.2548353 C12.5250592,41.0532895 12.3702659,41.7683886 12.0633028,42.3992552 C11.7545906,43.0309992 11.3374356,43.5644719 10.8109633,44.0023056 C10.284491,44.4410167 9.67493747,44.7753146 8.98142825,45.006954 C8.28879356,45.2394709 7.54456109,45.3544132 6.74873083,45.3544132 C5.43867179,45.3544132 4.25104817,45.1034705 3.18585998,44.601585 C2.12154633,44.0996995 1.24176035,43.3591551 0.549125664,42.3799519 L1.24176035,41.9175504 C2.52470869,43.7188982 4.3734836,44.6208883 6.786336,44.6208883 C7.35128803,44.6208883 7.92236183,44.5305138 8.50043194,44.3506422 C9.07850205,44.1707707 9.60409983,43.8996472 10.0789744,43.5390267 C10.5538489,43.1784061 10.9395205,42.7274111 11.2342401,42.186919 C11.5289596,41.6455495 11.6776312,41.0278443 11.6776312,40.3320485 C11.6776312,39.508149 11.4904799,38.8386758 11.1196755,38.323629 C10.747122,37.8085822 10.2783692,37.3953163 9.71341718,37.0873411 C9.14933969,36.7776111 8.52579356,36.5266683 7.84540242,36.332758 C7.16501127,36.1406025 6.53009614,35.9659955 5.93978249,35.813324 C5.29699651,35.6316976 4.69443932,35.4325228 4.12948729,35.2131672 C3.56453526,34.9946891 3.07042087,34.7112817 2.64714411,34.3629451 C2.22386736,34.0154859 1.88979356,33.5837942 1.64667179,33.0696248 C1.40180094,32.5537005 1.28024006,31.9096726 1.28024006,31.1366636 C1.28024006,30.3654095 1.43415887,29.6950589 1.74199651,29.1273667 C2.04983415,28.5614294 2.46086736,28.0911311 2.9742216,27.7173492 C3.48757585,27.3444448 4.07176773,27.0610374 4.72679725,26.8671271 C5.38095223,26.6740942 6.04210352,26.5775778 6.71025113,26.5775778 C9.12222899,26.5775778 10.9333987,27.4409612 12.1402622,29.1659733 L11.4082733,29.5915231 C10.8170851,28.8185141 10.149812,28.2455574 9.40557954,27.872653 C8.66047253,27.4988711 7.76232124,27.3119802 6.71025113,27.3119802 C6.22225851,27.3119802 5.70890426,27.376032 5.16931386,27.5050131 C4.63059799,27.6339941 4.13560906,27.8463303 3.68697068,28.1420216 C3.23745777,28.4385903 2.86490426,28.8316755 2.5701847,29.3203996 C2.27459061,29.8108787 2.12679356,30.4022612 2.12679356,31.098057 C2.12679356,31.8701886 2.24922899,32.4887713 2.49322529,32.9529276 C2.7372216,33.4162065 3.07654264,33.7899884 3.51381201,34.0733958 C3.94933231,34.3568032 4.47667917,34.5945846 5.09235445,34.7884949 C5.70890426,34.9806504 6.38842087,35.1684187 7.13352788,35.3482903 C7.8270371,35.5281618 8.50043194,35.740498 9.15458692,35.9861762 C9.81049098,36.230977 10.3876865,36.5336877 10.8879227,36.8934308 C11.3890334,37.2549287 11.786074,37.7050463 12.0816681,38.2455384 C12.3763877,38.7869079 12.5250592,39.4572585 12.5250592,40.2548353" id="Fill-14"></path>
                        <path d="M26.9745382,35.1933375 L24.2398556,35.1933375 C23.2647449,35.1933375 22.2380364,35.2512474 21.1597301,35.3670671 C20.0814238,35.4828868 19.0923205,35.7233005 18.1941692,36.0821662 C17.2960179,36.4436642 16.5579072,36.958711 15.9807116,37.6273067 C15.4026415,38.2976573 15.1131692,39.1987699 15.1131692,40.331522 C15.1131692,41.1571763 15.2732098,41.8459528 15.5950401,42.3996062 C15.9151212,42.9532596 16.3261544,43.3981127 16.8272651,43.7315331 C17.3283758,44.0667084 17.8802098,44.313264 18.482767,44.4659355 C19.0853242,44.6203618 19.6581471,44.6984524 20.1968629,44.6984524 C21.5060474,44.6984524 22.5965973,44.4536516 23.4702615,43.96405 C24.3421766,43.4744484 25.0426821,42.8514786 25.5691544,42.0898761 C26.0947522,41.3309059 26.4603094,40.4929677 26.665826,39.5786937 C26.8713426,38.6644198 26.9745382,37.771204 26.9745382,36.8929043 L26.9745382,35.1933375 Z M27.8219663,40.8737689 C27.8219663,41.5432421 27.8534496,42.2583412 27.9181655,43.0173114 C27.9811323,43.7771591 28.0519699,44.4018837 28.1298039,44.8914853 L27.3208556,44.8914853 C27.2692578,44.6344006 27.2307781,44.3176511 27.2054164,43.9447467 C27.1791803,43.5718423 27.1476969,43.1848991 27.1092172,42.7856719 C27.0707375,42.3864448 27.0445013,41.9933597 27.0322578,41.6081713 C27.0191397,41.2203507 27.0130179,40.8992142 27.0130179,40.641252 L26.8975788,40.641252 C26.38335,42.2653606 25.4983168,43.4683064 24.2398556,44.2535993 C22.9822688,45.0397696 21.6346046,45.4319774 20.1968629,45.4319774 C19.4779921,45.4319774 18.765243,45.329319 18.0594902,45.1231247 C17.3528629,44.9169305 16.7170733,44.6080779 16.1529958,44.1956895 C15.5880437,43.7841784 15.1332836,43.2550928 14.7860917,42.6119423 C14.4397744,41.9687919 14.2666157,41.2080668 14.2666157,40.331522 C14.2666157,39.0706663 14.5936932,38.0528565 15.2487227,37.2798475 C15.9028777,36.5068386 16.7170733,35.9075592 17.693933,35.4828868 C18.6690437,35.0582145 19.7149921,34.7818265 20.8326526,34.6528454 C21.9494386,34.5238643 22.9691508,34.4598125 23.8944127,34.4598125 L26.9745382,34.4598125 L26.9745382,33.0296143 C26.9745382,31.0466401 26.4471913,29.598016 25.3951212,28.6828646 C24.3421766,27.7694681 22.9691508,27.3132086 21.2751692,27.3132086 C20.2222246,27.3132086 19.2401175,27.5044866 18.3288482,27.8914298 C17.4175788,28.2774956 16.6025087,28.7934198 15.8836378,29.4365703 L15.4218814,28.7793811 C16.2430733,28.0590175 17.1735825,27.511506 18.2134091,27.1377241 C19.2532356,26.7656971 20.2738223,26.5779287 21.2751692,26.5779287 C23.3032246,26.5779287 24.9010068,27.0991175 26.0693906,28.1423726 C27.2377744,29.1856276 27.8219663,30.8272845 27.8219663,33.0682209 L27.8219663,40.8737689 Z" id="Fill-16"></path>
                        <path d="M33.0331677,29.5911721 C33.5211604,28.9480216 34.0729943,28.4005102 34.6895441,27.9495152 C35.3060939,27.4985201 35.9724925,27.1572029 36.6922378,26.9255634 C37.4102342,26.6930465 38.1544666,26.5772268 38.9249353,26.5772268 C40.1571604,26.5772268 41.1838688,26.7965824 42.0059353,27.2344161 C42.8271271,27.6722497 43.4821567,28.2522258 43.9701493,28.9734669 C44.4572674,29.6947079 44.8044592,30.5054461 45.0091013,31.4065587 C45.2154925,32.3094262 45.3178135,33.2237001 45.3178135,34.150258 L45.3178135,44.8907833 L44.4703854,44.8907833 L44.4703854,34.2274711 C44.4703854,33.5071075 44.393426,32.7340985 44.2395072,31.910199 C44.0855884,31.0854222 43.7969906,30.3396133 43.3728393,29.6683853 C42.9495626,28.9989121 42.3784888,28.4391168 41.6596179,27.9881217 C40.9407471,27.5371267 40.0286032,27.3116292 38.9249353,27.3116292 C37.94895,27.3116292 37.0315589,27.5116815 36.1718873,27.9109086 C35.3113412,28.3101357 34.5671087,28.8830924 33.9383153,29.6297787 C33.3086474,30.3773424 32.8084113,31.2854744 32.4358578,32.3532973 C32.0641788,33.422875 31.8787766,34.6398596 31.8787766,36.0051285 L31.8787766,44.8907833 L31.0313485,44.8907833 L31.0313485,31.600469 C31.0313485,31.3170616 31.0243522,30.9696024 31.0112342,30.557214 C30.9981161,30.145703 30.9858725,29.7262951 30.973629,29.3016228 C30.9596364,28.8778279 30.9403965,28.470704 30.9150349,28.0846382 C30.8896733,27.6985724 30.8643116,27.3765585 30.8380755,27.1185963 L31.6855035,27.1185963 C31.7108651,27.3765585 31.730105,27.6985724 31.7432231,28.0846382 C31.7563412,28.470704 31.7685847,28.8892344 31.7817028,29.3402294 C31.7948209,29.7912244 31.8070644,30.2299355 31.8201825,30.6537304 C31.8333006,31.0784028 31.8394223,31.459204 31.8394223,31.7935019 L31.9172563,31.7935019 C32.1734961,30.9696024 32.5451751,30.2352 33.0331677,29.5911721" id="Fill-18"></path>
                        <path d="M65.4346533,35.9662587 C65.4346533,34.7817387 65.2422548,33.6612706 64.8574578,32.6048542 C64.4717862,31.5493153 63.9138305,30.628022 63.1818415,29.8427291 C62.4507271,29.0574362 61.5648194,28.4388535 60.5249928,27.9878585 C59.4851663,27.5377409 58.3106607,27.3122434 57.0006017,27.3122434 C55.6914172,27.3122434 54.5230334,27.5377409 53.4971995,27.9878585 C52.4696164,28.4388535 51.590705,29.0574362 50.8587161,29.8427291 C50.1276017,30.628022 49.5687714,31.5493153 49.1839744,32.6048542 C48.7991773,33.6612706 48.6067788,34.7817387 48.6067788,35.9662587 C48.6067788,37.1771014 48.7991773,38.3107309 49.1839744,39.3662698 C49.5687714,40.4226862 50.1276017,41.3431021 50.8587161,42.128395 C51.590705,42.9145653 52.4696164,43.5392899 53.4971995,44.0025688 C54.5230334,44.4667252 55.6914172,44.6983646 57.0006017,44.6983646 C58.3106607,44.6983646 59.4851663,44.4667252 60.5249928,44.0025688 C61.5648194,43.5392899 62.4507271,42.9145653 63.1818415,42.128395 C63.9138305,41.3431021 64.4717862,40.4226862 64.8574578,39.3662698 C65.2422548,38.3107309 65.4346533,37.1771014 65.4346533,35.9662587 M66.2820814,35.9662587 C66.2820814,37.3569729 66.0573249,38.6318674 65.607812,39.7909422 C65.1591736,40.9508943 64.523384,41.9485234 63.7021921,42.7855842 C62.8801257,43.6243998 61.8980187,44.2736923 60.7558711,44.7369712 C59.6137234,45.2002501 58.361384,45.4318896 57.0006017,45.4318896 C55.6406939,45.4318896 54.3953508,45.2002501 53.2663212,44.7369712 C52.1355426,44.2736923 51.1604319,43.6243998 50.3392401,42.7855842 C49.5171736,41.9485234 48.881384,40.9508943 48.4336201,39.7909422 C47.9832327,38.6318674 47.7593508,37.3569729 47.7593508,35.9662587 C47.7593508,34.5755445 47.9832327,33.3076694 48.4336201,32.1608786 C48.881384,31.0140877 49.5171736,30.02962 50.3392401,29.2048431 C51.1604319,28.3800662 52.1355426,27.7369158 53.2663212,27.2736368 C54.3953508,26.8094805 55.6406939,26.577841 57.0006017,26.577841 C58.361384,26.577841 59.6137234,26.8094805 60.7558711,27.2736368 C61.8980187,27.7369158 62.8801257,28.3800662 63.7021921,29.2048431 C64.523384,30.02962 65.1591736,31.0140877 65.607812,32.1608786 C66.0573249,33.3076694 66.2820814,34.5755445 66.2820814,35.9662587" id="Fill-20"></path>
                    </g>
                    <g id="Group-2-Copy-2">
                        <path d="M2.30983452,3.26850561 C2.79782714,2.62535512 3.34966109,2.07784366 3.9662109,1.62684864 C4.58276072,1.17585362 5.24915924,0.834536378 5.96890463,0.602896913 C6.68690094,0.370380026 7.43113341,0.254560293 8.20160205,0.254560293 C9.43382714,0.254560293 10.4605356,0.473915847 11.282602,0.911749534 C12.1037939,1.34958322 12.7588234,1.92955931 13.2468161,2.65080037 C13.7339342,3.37204143 14.081126,4.18277956 14.2857681,5.08389218 C14.4921592,5.98675964 14.5944803,6.90103359 14.5944803,7.82759145 L14.5944803,18.5681168 L13.7470522,18.5681168 L13.7470522,7.90480461 C13.7470522,7.18444097 13.6700928,6.41143199 13.516174,5.58753253 C13.3622552,4.76275565 13.0736574,4.01694676 12.6495061,3.34571876 C12.2262294,2.67624561 11.6551556,2.11645024 10.9362847,1.66545522 C10.2174139,1.2144602 9.30526994,0.988962689 8.20160205,0.988962689 C7.22561681,0.988962689 6.30822566,1.18901495 5.44855408,1.58824206 C4.58800795,1.98746917 3.84377548,2.56042588 3.21498212,3.30711219 C2.58531422,4.05467592 2.08507806,4.96280791 1.71252456,6.03063075 C1.34084559,7.10020843 1.15544338,8.31719305 1.15544338,9.68246202 L1.15544338,18.5681168 L0.308015332,18.5681168 L0.308015332,5.27780249 C0.308015332,4.99439511 0.301019022,4.64693591 0.287900941,4.23454747 C0.27478286,3.82303645 0.262539317,3.40362863 0.250295775,2.97895628 C0.236303155,2.55516135 0.217063302,2.14803744 0.191701679,1.76197166 C0.166340055,1.37590589 0.140978432,1.05389193 0.114742269,0.795929801 L0.962170313,0.795929801 C0.987531937,1.05389193 1.00677179,1.37590589 1.01988987,1.76197166 C1.03300795,2.14803744 1.04525149,2.56656784 1.05836958,3.01756286 C1.07148766,3.46855787 1.0837312,3.90726898 1.09684928,4.33106391 C1.10996736,4.75573627 1.11608913,5.13653751 1.11608913,5.47083537 L1.19392308,5.47083537 C1.45016293,4.64693591 1.8218419,3.91253352 2.30983452,3.26850561" id="Fill-6"></path>
                        <path d="M33.73516,9.64359221 C33.73516,8.45907222 33.5427615,7.33860405 33.1579644,6.2821877 C32.7722928,5.22664877 32.2143371,4.30535544 31.4823482,3.52006256 C30.7512338,2.73476967 29.865326,2.11618701 28.8254995,1.66519199 C27.7856729,1.21507439 26.6111674,0.989576884 25.3011083,0.989576884 C23.9919238,0.989576884 22.8235401,1.21507439 21.7977061,1.66519199 C20.7701231,2.11618701 19.8912116,2.73476967 19.1592227,3.52006256 C18.4281083,4.30535544 17.8692781,5.22664877 17.484481,6.2821877 C17.099684,7.33860405 16.9072854,8.45907222 16.9072854,9.64359221 C16.9072854,10.8544349 17.099684,11.9880644 17.484481,13.0436033 C17.8692781,14.1000197 18.4281083,15.0204356 19.1592227,15.8057284 C19.8912116,16.5918988 20.7701231,17.2166234 21.7977061,17.6799023 C22.8235401,18.1440587 23.9919238,18.3756981 25.3011083,18.3756981 C26.6111674,18.3756981 27.7856729,18.1440587 28.8254995,17.6799023 C29.865326,17.2166234 30.7512338,16.5918988 31.4823482,15.8057284 C32.2143371,15.0204356 32.7722928,14.1000197 33.1579644,13.0436033 C33.5427615,11.9880644 33.73516,10.8544349 33.73516,9.64359221 M34.582588,9.64359221 C34.582588,11.0343064 34.3578316,12.3092009 33.9083187,13.4682757 C33.4596803,14.6282278 32.8238906,15.6258569 32.0026987,16.4629177 C31.1806323,17.3017333 30.1985253,17.9510258 29.0563777,18.4143047 C27.9142301,18.8775836 26.6618906,19.1092231 25.3011083,19.1092231 C23.9412006,19.1092231 22.6958574,18.8775836 21.5668279,18.4143047 C20.4360493,17.9510258 19.4609386,17.3017333 18.6397467,16.4629177 C17.8176803,15.6258569 17.1818906,14.6282278 16.7341268,13.4682757 C16.2837393,12.3092009 16.0598574,11.0343064 16.0598574,9.64359221 C16.0598574,8.252878 16.2837393,6.9850029 16.7341268,5.83821206 C17.1818906,4.69142122 17.8176803,3.70695349 18.6397467,2.88217661 C19.4609386,2.05739972 20.4360493,1.41424924 21.5668279,0.950970307 C22.6958574,0.486813954 23.9412006,0.255174488 25.3011083,0.255174488 C26.6618906,0.255174488 27.9142301,0.486813954 29.0563777,0.950970307 C30.1985253,1.41424924 31.1806323,2.05739972 32.0026987,2.88217661 C32.8238906,3.70695349 33.4596803,4.69142122 33.9083187,5.83821206 C34.3578316,6.9850029 34.582588,8.252878 34.582588,9.64359221" id="Fill-8"></path>
                        <polygon id="Fill-10" points="41.5787231 18.5685555 40.4628116 18.5685555 33.4918633 0.79549109 34.4162508 0.79549109 41.0015275 17.7183334 41.0784869 17.7183334 47.4320109 0.79549109 48.3563984 0.79549109"></polygon>
                        <path d="M65.3987973,9.64359221 C65.3987973,8.45907222 65.2063987,7.33860405 64.8216017,6.2821877 C64.4359301,5.22664877 63.8779744,4.30535544 63.1459854,3.52006256 C62.4148711,2.73476967 61.5289633,2.11618701 60.4891367,1.66519199 C59.4493102,1.21507439 58.2748046,0.989576884 56.9647456,0.989576884 C55.6555611,0.989576884 54.4871773,1.21507439 53.4613434,1.66519199 C52.4337604,2.11618701 51.5548489,2.73476967 50.82286,3.52006256 C50.0917456,4.30535544 49.5329153,5.22664877 49.1481183,6.2821877 C48.7633212,7.33860405 48.5709227,8.45907222 48.5709227,9.64359221 C48.5709227,10.8544349 48.7633212,11.9880644 49.1481183,13.0436033 C49.5329153,14.1000197 50.0917456,15.0204356 50.82286,15.8057284 C51.5548489,16.5918988 52.4337604,17.2166234 53.4613434,17.6799023 C54.4871773,18.1440587 55.6555611,18.3756981 56.9647456,18.3756981 C58.2748046,18.3756981 59.4493102,18.1440587 60.4891367,17.6799023 C61.5289633,17.2166234 62.4148711,16.5918988 63.1459854,15.8057284 C63.8779744,15.0204356 64.4359301,14.1000197 64.8216017,13.0436033 C65.2063987,11.9880644 65.3987973,10.8544349 65.3987973,9.64359221 M66.2462253,9.64359221 C66.2462253,11.0343064 66.0214688,12.3092009 65.5719559,13.4682757 C65.1233175,14.6282278 64.4875279,15.6258569 63.666336,16.4629177 C62.8442696,17.3017333 61.8621626,17.9510258 60.720015,18.4143047 C59.5778674,18.8775836 58.3255279,19.1092231 56.9647456,19.1092231 C55.6048378,19.1092231 54.3594947,18.8775836 53.2304651,18.4143047 C52.0996865,17.9510258 51.1245758,17.3017333 50.303384,16.4629177 C49.4813175,15.6258569 48.8455279,14.6282278 48.397764,13.4682757 C47.9473766,12.3092009 47.7234947,11.0343064 47.7234947,9.64359221 C47.7234947,8.252878 47.9473766,6.9850029 48.397764,5.83821206 C48.8455279,4.69142122 49.4813175,3.70695349 50.303384,2.88217661 C51.1245758,2.05739972 52.0996865,1.41424924 53.2304651,0.950970307 C54.3594947,0.486813954 55.6048378,0.255174488 56.9647456,0.255174488 C58.3255279,0.255174488 59.5778674,0.486813954 60.720015,0.950970307 C61.8621626,1.41424924 62.8442696,2.05739972 63.666336,2.88217661 C64.4875279,3.70695349 65.1233175,4.69142122 65.5719559,5.83821206 C66.0214688,6.9850029 66.2462253,8.252878 66.2462253,9.64359221" id="Fill-12"></path>
                        <path d="M12.5250592,40.2548353 C12.5250592,41.0532895 12.3702659,41.7683886 12.0633028,42.3992552 C11.7545906,43.0309992 11.3374356,43.5644719 10.8109633,44.0023056 C10.284491,44.4410167 9.67493747,44.7753146 8.98142825,45.006954 C8.28879356,45.2394709 7.54456109,45.3544132 6.74873083,45.3544132 C5.43867179,45.3544132 4.25104817,45.1034705 3.18585998,44.601585 C2.12154633,44.0996995 1.24176035,43.3591551 0.549125664,42.3799519 L1.24176035,41.9175504 C2.52470869,43.7188982 4.3734836,44.6208883 6.786336,44.6208883 C7.35128803,44.6208883 7.92236183,44.5305138 8.50043194,44.3506422 C9.07850205,44.1707707 9.60409983,43.8996472 10.0789744,43.5390267 C10.5538489,43.1784061 10.9395205,42.7274111 11.2342401,42.186919 C11.5289596,41.6455495 11.6776312,41.0278443 11.6776312,40.3320485 C11.6776312,39.508149 11.4904799,38.8386758 11.1196755,38.323629 C10.747122,37.8085822 10.2783692,37.3953163 9.71341718,37.0873411 C9.14933969,36.7776111 8.52579356,36.5266683 7.84540242,36.332758 C7.16501127,36.1406025 6.53009614,35.9659955 5.93978249,35.813324 C5.29699651,35.6316976 4.69443932,35.4325228 4.12948729,35.2131672 C3.56453526,34.9946891 3.07042087,34.7112817 2.64714411,34.3629451 C2.22386736,34.0154859 1.88979356,33.5837942 1.64667179,33.0696248 C1.40180094,32.5537005 1.28024006,31.9096726 1.28024006,31.1366636 C1.28024006,30.3654095 1.43415887,29.6950589 1.74199651,29.1273667 C2.04983415,28.5614294 2.46086736,28.0911311 2.9742216,27.7173492 C3.48757585,27.3444448 4.07176773,27.0610374 4.72679725,26.8671271 C5.38095223,26.6740942 6.04210352,26.5775778 6.71025113,26.5775778 C9.12222899,26.5775778 10.9333987,27.4409612 12.1402622,29.1659733 L11.4082733,29.5915231 C10.8170851,28.8185141 10.149812,28.2455574 9.40557954,27.872653 C8.66047253,27.4988711 7.76232124,27.3119802 6.71025113,27.3119802 C6.22225851,27.3119802 5.70890426,27.376032 5.16931386,27.5050131 C4.63059799,27.6339941 4.13560906,27.8463303 3.68697068,28.1420216 C3.23745777,28.4385903 2.86490426,28.8316755 2.5701847,29.3203996 C2.27459061,29.8108787 2.12679356,30.4022612 2.12679356,31.098057 C2.12679356,31.8701886 2.24922899,32.4887713 2.49322529,32.9529276 C2.7372216,33.4162065 3.07654264,33.7899884 3.51381201,34.0733958 C3.94933231,34.3568032 4.47667917,34.5945846 5.09235445,34.7884949 C5.70890426,34.9806504 6.38842087,35.1684187 7.13352788,35.3482903 C7.8270371,35.5281618 8.50043194,35.740498 9.15458692,35.9861762 C9.81049098,36.230977 10.3876865,36.5336877 10.8879227,36.8934308 C11.3890334,37.2549287 11.786074,37.7050463 12.0816681,38.2455384 C12.3763877,38.7869079 12.5250592,39.4572585 12.5250592,40.2548353" id="Fill-14"></path>
                        <path d="M26.9745382,35.1933375 L24.2398556,35.1933375 C23.2647449,35.1933375 22.2380364,35.2512474 21.1597301,35.3670671 C20.0814238,35.4828868 19.0923205,35.7233005 18.1941692,36.0821662 C17.2960179,36.4436642 16.5579072,36.958711 15.9807116,37.6273067 C15.4026415,38.2976573 15.1131692,39.1987699 15.1131692,40.331522 C15.1131692,41.1571763 15.2732098,41.8459528 15.5950401,42.3996062 C15.9151212,42.9532596 16.3261544,43.3981127 16.8272651,43.7315331 C17.3283758,44.0667084 17.8802098,44.313264 18.482767,44.4659355 C19.0853242,44.6203618 19.6581471,44.6984524 20.1968629,44.6984524 C21.5060474,44.6984524 22.5965973,44.4536516 23.4702615,43.96405 C24.3421766,43.4744484 25.0426821,42.8514786 25.5691544,42.0898761 C26.0947522,41.3309059 26.4603094,40.4929677 26.665826,39.5786937 C26.8713426,38.6644198 26.9745382,37.771204 26.9745382,36.8929043 L26.9745382,35.1933375 Z M27.8219663,40.8737689 C27.8219663,41.5432421 27.8534496,42.2583412 27.9181655,43.0173114 C27.9811323,43.7771591 28.0519699,44.4018837 28.1298039,44.8914853 L27.3208556,44.8914853 C27.2692578,44.6344006 27.2307781,44.3176511 27.2054164,43.9447467 C27.1791803,43.5718423 27.1476969,43.1848991 27.1092172,42.7856719 C27.0707375,42.3864448 27.0445013,41.9933597 27.0322578,41.6081713 C27.0191397,41.2203507 27.0130179,40.8992142 27.0130179,40.641252 L26.8975788,40.641252 C26.38335,42.2653606 25.4983168,43.4683064 24.2398556,44.2535993 C22.9822688,45.0397696 21.6346046,45.4319774 20.1968629,45.4319774 C19.4779921,45.4319774 18.765243,45.329319 18.0594902,45.1231247 C17.3528629,44.9169305 16.7170733,44.6080779 16.1529958,44.1956895 C15.5880437,43.7841784 15.1332836,43.2550928 14.7860917,42.6119423 C14.4397744,41.9687919 14.2666157,41.2080668 14.2666157,40.331522 C14.2666157,39.0706663 14.5936932,38.0528565 15.2487227,37.2798475 C15.9028777,36.5068386 16.7170733,35.9075592 17.693933,35.4828868 C18.6690437,35.0582145 19.7149921,34.7818265 20.8326526,34.6528454 C21.9494386,34.5238643 22.9691508,34.4598125 23.8944127,34.4598125 L26.9745382,34.4598125 L26.9745382,33.0296143 C26.9745382,31.0466401 26.4471913,29.598016 25.3951212,28.6828646 C24.3421766,27.7694681 22.9691508,27.3132086 21.2751692,27.3132086 C20.2222246,27.3132086 19.2401175,27.5044866 18.3288482,27.8914298 C17.4175788,28.2774956 16.6025087,28.7934198 15.8836378,29.4365703 L15.4218814,28.7793811 C16.2430733,28.0590175 17.1735825,27.511506 18.2134091,27.1377241 C19.2532356,26.7656971 20.2738223,26.5779287 21.2751692,26.5779287 C23.3032246,26.5779287 24.9010068,27.0991175 26.0693906,28.1423726 C27.2377744,29.1856276 27.8219663,30.8272845 27.8219663,33.0682209 L27.8219663,40.8737689 Z" id="Fill-16"></path>
                        <path d="M33.0331677,29.5911721 C33.5211604,28.9480216 34.0729943,28.4005102 34.6895441,27.9495152 C35.3060939,27.4985201 35.9724925,27.1572029 36.6922378,26.9255634 C37.4102342,26.6930465 38.1544666,26.5772268 38.9249353,26.5772268 C40.1571604,26.5772268 41.1838688,26.7965824 42.0059353,27.2344161 C42.8271271,27.6722497 43.4821567,28.2522258 43.9701493,28.9734669 C44.4572674,29.6947079 44.8044592,30.5054461 45.0091013,31.4065587 C45.2154925,32.3094262 45.3178135,33.2237001 45.3178135,34.150258 L45.3178135,44.8907833 L44.4703854,44.8907833 L44.4703854,34.2274711 C44.4703854,33.5071075 44.393426,32.7340985 44.2395072,31.910199 C44.0855884,31.0854222 43.7969906,30.3396133 43.3728393,29.6683853 C42.9495626,28.9989121 42.3784888,28.4391168 41.6596179,27.9881217 C40.9407471,27.5371267 40.0286032,27.3116292 38.9249353,27.3116292 C37.94895,27.3116292 37.0315589,27.5116815 36.1718873,27.9109086 C35.3113412,28.3101357 34.5671087,28.8830924 33.9383153,29.6297787 C33.3086474,30.3773424 32.8084113,31.2854744 32.4358578,32.3532973 C32.0641788,33.422875 31.8787766,34.6398596 31.8787766,36.0051285 L31.8787766,44.8907833 L31.0313485,44.8907833 L31.0313485,31.600469 C31.0313485,31.3170616 31.0243522,30.9696024 31.0112342,30.557214 C30.9981161,30.145703 30.9858725,29.7262951 30.973629,29.3016228 C30.9596364,28.8778279 30.9403965,28.470704 30.9150349,28.0846382 C30.8896733,27.6985724 30.8643116,27.3765585 30.8380755,27.1185963 L31.6855035,27.1185963 C31.7108651,27.3765585 31.730105,27.6985724 31.7432231,28.0846382 C31.7563412,28.470704 31.7685847,28.8892344 31.7817028,29.3402294 C31.7948209,29.7912244 31.8070644,30.2299355 31.8201825,30.6537304 C31.8333006,31.0784028 31.8394223,31.459204 31.8394223,31.7935019 L31.9172563,31.7935019 C32.1734961,30.9696024 32.5451751,30.2352 33.0331677,29.5911721" id="Fill-18"></path>
                        <path d="M65.4346533,35.9662587 C65.4346533,34.7817387 65.2422548,33.6612706 64.8574578,32.6048542 C64.4717862,31.5493153 63.9138305,30.628022 63.1818415,29.8427291 C62.4507271,29.0574362 61.5648194,28.4388535 60.5249928,27.9878585 C59.4851663,27.5377409 58.3106607,27.3122434 57.0006017,27.3122434 C55.6914172,27.3122434 54.5230334,27.5377409 53.4971995,27.9878585 C52.4696164,28.4388535 51.590705,29.0574362 50.8587161,29.8427291 C50.1276017,30.628022 49.5687714,31.5493153 49.1839744,32.6048542 C48.7991773,33.6612706 48.6067788,34.7817387 48.6067788,35.9662587 C48.6067788,37.1771014 48.7991773,38.3107309 49.1839744,39.3662698 C49.5687714,40.4226862 50.1276017,41.3431021 50.8587161,42.128395 C51.590705,42.9145653 52.4696164,43.5392899 53.4971995,44.0025688 C54.5230334,44.4667252 55.6914172,44.6983646 57.0006017,44.6983646 C58.3106607,44.6983646 59.4851663,44.4667252 60.5249928,44.0025688 C61.5648194,43.5392899 62.4507271,42.9145653 63.1818415,42.128395 C63.9138305,41.3431021 64.4717862,40.4226862 64.8574578,39.3662698 C65.2422548,38.3107309 65.4346533,37.1771014 65.4346533,35.9662587 M66.2820814,35.9662587 C66.2820814,37.3569729 66.0573249,38.6318674 65.607812,39.7909422 C65.1591736,40.9508943 64.523384,41.9485234 63.7021921,42.7855842 C62.8801257,43.6243998 61.8980187,44.2736923 60.7558711,44.7369712 C59.6137234,45.2002501 58.361384,45.4318896 57.0006017,45.4318896 C55.6406939,45.4318896 54.3953508,45.2002501 53.2663212,44.7369712 C52.1355426,44.2736923 51.1604319,43.6243998 50.3392401,42.7855842 C49.5171736,41.9485234 48.881384,40.9508943 48.4336201,39.7909422 C47.9832327,38.6318674 47.7593508,37.3569729 47.7593508,35.9662587 C47.7593508,34.5755445 47.9832327,33.3076694 48.4336201,32.1608786 C48.881384,31.0140877 49.5171736,30.02962 50.3392401,29.2048431 C51.1604319,28.3800662 52.1355426,27.7369158 53.2663212,27.2736368 C54.3953508,26.8094805 55.6406939,26.577841 57.0006017,26.577841 C58.361384,26.577841 59.6137234,26.8094805 60.7558711,27.2736368 C61.8980187,27.7369158 62.8801257,28.3800662 63.7021921,29.2048431 C64.523384,30.02962 65.1591736,31.0140877 65.607812,32.1608786 C66.0573249,33.3076694 66.2820814,34.5755445 66.2820814,35.9662587" id="Fill-20"></path>
                    </g>
                </g>
                <g id="med" transform="translate(107.856287, 23.897188)" fill="#FFFFFF">
                    <g id="Group">
                        <path d="M16.4500377,18.8761798 C17.0324805,16.8861862 18.0242074,15.3594715 19.4225949,14.2907712 C20.8227314,13.2247033 22.4108938,12.6894757 24.1897056,12.6894757 C25.5303735,12.6894757 26.6602775,12.9377862 27.5785432,13.4352846 C28.4959343,13.9336604 29.2244251,14.5917271 29.7648901,15.4094846 C30.3036059,16.2281195 30.6892775,17.1502903 30.9236539,18.1733646 C31.1562812,19.1981937 31.2734694,20.2353068 31.2734694,21.2890909 L31.2734694,33.4843822 L30.3114768,33.4843822 L30.3114768,21.3768331 C30.3114768,20.5573207 30.2161521,19.6798985 30.0263772,18.7445664 C29.8374768,17.8083569 29.5095248,16.9598896 29.0425211,16.1991646 C28.5763919,15.4393169 27.9493476,14.8023084 27.1631373,14.2907712 C26.3760524,13.7792341 25.3843255,13.5230268 24.1897056,13.5230268 C23.1393845,13.5230268 22.1555284,13.7502792 21.2381373,14.203029 C20.3198716,14.6566563 19.5179196,15.308581 18.8331557,16.1552935 C18.1475174,17.0046382 17.6009307,18.0347318 17.1933956,19.2482068 C16.784986,20.4634365 16.5803439,21.8444991 16.5803439,23.3940267 L16.5803439,33.4843822 L15.6192259,33.4843822 L15.6192259,21.3768331 C15.6192259,20.5573207 15.5387683,19.6798985 15.3778532,18.7445664 C15.2178126,17.8083569 14.9195949,16.9598896 14.4823255,16.1991646 C14.0450561,15.4393169 13.4398753,14.8023084 12.6676576,14.2907712 C11.8945653,13.7792341 10.9107093,13.5230268 9.71608933,13.5230268 C8.66664283,13.5230268 7.68278674,13.7502792 6.76452106,14.203029 C5.84625538,14.6566563 5.04430335,15.308581 4.35953951,16.1552935 C3.67477567,17.0046382 3.13431073,18.0347318 2.74164283,19.2482068 C2.3481004,20.4634365 2.15045464,21.8444991 2.15045464,23.3940267 L2.15045464,33.4843822 L1.18933656,33.4843822 L1.18933656,18.3927201 C1.18933656,18.0715836 1.18146571,17.6767436 1.16659855,17.2090775 C1.15260593,16.7405341 1.13773877,16.2649712 1.12374615,15.7832664 C1.108879,15.2998068 1.08701553,14.8391601 1.05728121,14.400449 C1.02842143,13.9617379 0.999561652,13.5958528 0.970701874,13.3036713 L1.93181995,13.3036713 C1.96155427,13.5958528 1.98341774,13.9617379 1.9982849,14.400449 C2.01227752,14.8391601 2.02714468,15.314723 2.0411373,15.8262601 C2.05600446,16.3377973 2.07087162,16.8352957 2.08573877,17.3187553 C2.09973139,17.8004601 2.10760224,18.2330293 2.10760224,18.6120757 L2.19505612,18.6120757 C2.48540298,17.6767436 2.89468711,16.8440699 3.41941036,16.1122998 C3.94413361,15.3814071 4.53444726,14.7601921 5.19035132,14.2477776 C5.84625538,13.7362404 6.559879,13.3475424 7.33297125,13.0843157 C8.10518896,12.8219665 8.89927014,12.6894757 9.71608933,12.6894757 C10.7655358,12.6894757 11.6759307,12.8509214 12.4490229,13.1729353 C13.2212406,13.4949493 13.8701484,13.9336604 14.3939971,14.4890687 C14.9195949,15.0444769 15.3411225,15.6955242 15.6629528,16.4413331 C15.983034,17.1862646 16.2156613,17.9987575 16.3617093,18.8761798 L16.4500377,18.8761798 Z" id="Fill-22"></path>
                        <path d="M50.4699447,22.3412956 C50.4402104,21.0251622 50.2137048,19.8266035 49.7921772,18.7438645 C49.3689004,17.6628803 48.7925794,16.7336902 48.0649631,15.9580489 C47.3355978,15.1832851 46.4610591,14.5831283 45.4413469,14.1602108 C44.4198856,13.7355385 43.2829853,13.5232023 42.0306458,13.5232023 C40.5141956,13.5232023 39.2172546,13.8381969 38.1380738,14.4664312 C37.0597676,15.0955429 36.177358,15.8703067 35.4934687,16.7924775 C34.8078303,17.7128934 34.3049705,18.6780578 33.9840148,19.6870934 C33.6630591,20.6961289 33.503893,21.5814479 33.503893,22.3412956 L50.4699447,22.3412956 Z M33.4601661,23.1748467 C33.4601661,24.4032378 33.6420701,25.6175901 34.0067528,26.8161489 C34.3705609,28.0155851 34.9250185,29.0904273 35.6675019,30.0406755 C36.4117343,30.9918012 37.3518635,31.7595457 38.4887639,32.3439089 C39.6256642,32.9291495 40.9663321,33.2213311 42.5107676,33.2213311 C44.0849373,33.2213311 45.4850738,32.9080913 46.7085535,32.2781022 C47.9337823,31.6498679 48.9972214,30.7355939 49.9014945,29.5361578 L50.600251,30.1503533 C49.6093986,31.4375317 48.4506347,32.4176123 47.124834,33.0897177 C45.7972842,33.7627006 44.259845,34.0987533 42.5107676,34.0987533 C41.0240517,34.0987533 39.6685166,33.8285072 38.4450369,33.2871377 C37.2206827,32.7466456 36.1633653,31.99294 35.274834,31.0277755 C34.3845535,30.0634885 33.6997897,28.9079234 33.2187934,27.5619578 C32.7386716,26.2177469 32.4972989,24.7542067 32.4972989,23.1748467 C32.4972989,21.654274 32.7456679,20.2503984 33.2424059,18.96322 C33.7391439,17.6769191 34.4186605,16.5661025 35.2809557,15.6290156 C36.1423764,14.6928061 37.1577159,13.9698102 38.3269742,13.4573956 C39.495358,12.9467359 40.7520701,12.6896512 42.0962362,12.6896512 C43.6739041,12.6896512 45.0469299,12.967794 46.2161882,13.5232023 C47.384572,14.079488 48.35531,14.8112581 49.1310259,15.7167578 C49.9049926,16.6240124 50.4821882,17.6541061 50.861738,18.8096711 C51.2421624,19.9661136 51.4319373,21.1427368 51.4319373,22.3412956 L51.4319373,23.1748467 L33.4601661,23.1748467 Z" id="Fill-24"></path>
                        <path d="M53.7059129,23.4380733 C53.7059129,24.7542067 53.9166768,26.0124301 54.3399535,27.2118663 C54.7623557,28.4113025 55.366662,29.4563123 56.1546214,30.3477733 C56.9417063,31.2409891 57.8958281,31.9490689 59.0187358,32.4763996 C60.1398945,33.0019755 61.4018539,33.2652022 62.8002414,33.2652022 C64.1417838,33.2652022 65.3731343,33.0019755 66.4960421,32.4763996 C67.6172008,31.9490689 68.5879388,31.2409891 69.4038834,30.3477733 C70.2198281,29.4563123 70.860865,28.4113025 71.3269941,27.2118663 C71.7939978,26.0124301 72.0274997,24.7401679 72.0274997,23.3942022 C72.0274997,22.0499914 71.7939978,20.7768518 71.3269941,19.5774156 C70.860865,18.3788568 70.2198281,17.333847 69.4038834,16.4406312 C68.5879388,15.5491702 67.6172008,14.8393356 66.4960421,14.3128823 C65.3731343,13.786429 64.1417838,13.5232023 62.8002414,13.5232023 C61.4018539,13.5232023 60.1398945,13.7943258 59.0187358,14.3348178 C57.8958281,14.8761873 56.9417063,15.6000607 56.1546214,16.5064378 C55.366662,17.4136924 54.7623557,18.4665991 54.3399535,19.6651578 C53.9166768,20.864594 53.7059129,22.12194 53.7059129,23.4380733 L53.7059129,23.4380733 Z M71.9828982,0.317997919 L72.9457653,0.317997919 L72.9457653,33.4845577 L71.9828982,33.4845577 L71.9828982,28.04454 L71.8525919,28.04454 C70.9780532,30.0345336 69.7318355,31.5401901 68.1139388,32.5632644 C66.4960421,33.5863387 64.7251011,34.0987533 62.8002414,34.0987533 C61.3423853,34.0987533 59.9947211,33.8285072 58.7554997,33.2871377 C57.5162783,32.7466456 56.4537137,32.0008368 55.5643078,31.0505885 C54.6740273,30.0994628 53.9822672,28.9737301 53.4872783,27.6716355 C52.9914148,26.3704184 52.7430458,24.9595235 52.7430458,23.4380733 C52.7430458,21.9183781 52.9914148,20.4987089 53.4872783,19.1825756 C53.9822672,17.8664423 54.6740273,16.7257934 55.5643078,15.7606289 C56.4537137,14.7954645 57.5162783,14.0435137 58.7554997,13.5021442 C59.9947211,12.9607746 61.3423853,12.6896512 62.8002414,12.6896512 C64.7251011,12.6896512 66.4960421,13.2020658 68.1139388,14.2251401 C69.7318355,15.2499692 70.9780532,16.7696645 71.8525919,18.7877356 L71.9828982,18.7877356 L71.9828982,0.317997919 Z" id="Fill-26"></path>
                        <path d="M88.4679535,28.2201999 C88.4679535,29.1274545 88.2930458,29.9381926 87.9432303,30.6541691 C87.5934148,31.3727779 87.1194148,31.9790767 86.5221048,32.4765751 C85.9247949,32.9731961 85.2321602,33.3539973 84.4450753,33.6154691 C83.6579904,33.8795732 82.8123115,34.012064 81.9089129,34.012064 C80.4221971,34.012064 79.0736583,33.7251469 77.8641712,33.1556999 C76.6538096,32.5862529 75.6568355,31.744805 74.868876,30.633111 L75.6568355,30.1057803 C77.113817,32.1536837 79.21271,33.176758 81.9526399,33.176758 C82.5936768,33.176758 83.2425845,33.0758545 83.8984886,32.8705377 C84.5543926,32.6660983 85.1517026,32.3598779 85.691293,31.9492443 C86.2300089,31.5403656 86.6672783,31.027951 87.0031011,30.4137555 C87.3380495,29.7995599 87.5059609,29.0976221 87.5059609,28.3088196 C87.5059609,27.3726101 87.2943225,26.611885 86.8719203,26.0266444 C86.4486436,25.4414038 85.916924,24.9737377 85.2767617,24.6218914 C84.6339757,24.2717999 83.9273484,23.9866377 83.1551307,23.7672822 C82.3829129,23.5479266 81.6614185,23.3505066 80.9906473,23.1750222 C80.2612819,22.9705828 79.5765181,22.7442079 78.9363557,22.4958974 C78.2935698,22.2467095 77.733865,21.9246955 77.2519941,21.5298555 C76.7709978,21.1350155 76.391448,20.6454139 76.1150938,20.0601733 C75.837865,19.4758101 75.6996879,18.74404 75.6996879,17.8666177 C75.6996879,16.9891955 75.8754701,16.2284705 76.2244111,15.5861974 C76.5742266,14.9421695 77.0403557,14.4086968 77.6245476,13.983147 C78.2069904,13.5602295 78.8698908,13.2382156 79.6132487,13.01886 C80.3574812,12.7995044 81.1069609,12.6898267 81.865186,12.6898267 C84.6051159,12.6898267 86.6602819,13.6699073 88.0306842,15.6283137 L87.1998724,16.1117733 C86.5291011,15.2343511 85.7717506,14.5833038 84.9260716,14.1603863 C84.0803926,13.735714 83.0598059,13.5233778 81.865186,13.5233778 C81.3107284,13.5233778 80.7282856,13.5962038 80.1161085,13.7427333 C79.5039314,13.8892628 78.9424775,14.1305539 78.4326214,14.4666067 C77.9218908,14.8026594 77.4994886,15.2501447 77.1645403,15.805553 C76.8287174,16.3600838 76.6616805,17.0330666 76.6616805,17.8218692 C76.6616805,18.6992914 76.7998576,19.4021066 77.0779609,19.92856 C77.3543152,20.4541359 77.7399867,20.8796856 78.2358502,21.2008222 C78.7308391,21.5228361 79.3290236,21.7930822 80.0295292,22.0124377 C80.7282856,22.2317933 81.5005033,22.4441295 82.3461823,22.6476914 C83.1332672,22.8538856 83.8984886,23.0951767 84.6418465,23.3733196 C85.386079,23.650585 86.0419831,23.9945345 86.6095587,24.4025358 C87.1780089,24.8131694 87.6301454,25.3247066 87.9650938,25.9380247 C88.3000421,26.5539751 88.4679535,27.3147002 88.4679535,28.2201999" id="Fill-28"></path>
                        <path d="M109.981257,23.4380733 C109.981257,22.12194 109.770493,20.864594 109.348965,19.6651578 C108.926563,18.4665991 108.323131,17.4136924 107.53867,16.5064378 C106.753334,15.6000607 105.800962,14.8761873 104.680678,14.3348178 C103.561268,13.7943258 102.303681,13.5232023 100.907917,13.5232023 C99.5707476,13.5232023 98.3411462,13.786429 97.2217366,14.3128823 C96.102327,14.8393356 95.1350871,15.5491702 94.3217661,16.4406312 C93.506696,17.333847 92.8665336,18.3788568 92.401279,19.5774156 C91.9360244,20.7768518 91.7042716,22.0499914 91.7042716,23.3942022 C91.7042716,24.7401679 91.9360244,26.0124301 92.401279,27.2118663 C92.8665336,28.4113025 93.506696,29.4563123 94.3217661,30.3477733 C95.1350871,31.2409891 96.102327,31.9490689 97.2217366,32.4763996 C98.3411462,33.0019755 99.5707476,33.2652022 100.907917,33.2652022 C102.303681,33.2652022 103.561268,33.0019755 104.680678,32.4763996 C105.800962,31.9490689 106.753334,31.2409891 107.53867,30.3477733 C108.323131,29.4563123 108.926563,28.4113025 109.348965,27.2118663 C109.770493,26.0124301 109.981257,24.7542067 109.981257,23.4380733 L109.981257,23.4380733 Z M91.8791794,18.7877356 C92.7510945,16.7696645 93.9946886,15.2499692 95.6082126,14.2251401 C97.2217366,13.2020658 98.9900539,12.6896512 100.909666,12.6896512 C102.39201,12.6896512 103.751917,12.9607746 104.988515,13.5021442 C106.224238,14.0435137 107.285928,14.7893225 108.173585,15.7386934 C109.059493,16.6898191 109.744257,17.8225712 110.223504,19.1387045 C110.702751,20.4548378 110.944124,21.8885457 110.944124,23.4380733 C110.944124,24.9595235 110.695755,26.3704184 110.201641,27.6716355 C109.707526,28.9737301 109.015766,30.0994628 108.129858,31.0505885 C107.242202,32.0008368 106.180511,32.7466456 104.944788,33.2871377 C103.70819,33.8285072 102.36315,34.0987533 100.909666,34.0987533 C99.9494229,34.0987533 99.0119174,33.96714 98.0954008,33.7039133 C97.1788842,33.4406866 96.3288325,33.0537434 95.5434967,32.5413288 C94.7581609,32.0306691 94.0445373,31.40068 93.406124,30.6548711 C92.7650871,29.9090622 92.2561056,29.0395368 91.8791794,28.04454 L91.747124,28.04454 L91.747124,44.0136243 L90.7414045,44.0136243 L90.7414045,13.3038467 L91.7427513,13.3038467 L91.7427513,18.7877356 L91.8791794,18.7877356 Z" id="Fill-30"></path>
                        <path d="M126.553154,22.4732599 L123.448541,22.4732599 C122.340501,22.4732599 121.175615,22.5381891 119.950386,22.6706799 C118.726032,22.8022932 117.603999,23.0734167 116.584287,23.4822954 C115.562825,23.8920516 114.725892,24.4764148 114.069988,25.2371399 C113.414084,25.9987423 113.086132,27.0218166 113.086132,28.3081176 C113.086132,29.2443271 113.267161,30.0261103 113.632718,30.6543446 C113.996527,31.2843338 114.462656,31.7888516 115.031106,32.1687754 C115.600431,32.5486992 116.225726,32.826842 116.912239,33.0023265 C117.596128,33.1769335 118.245036,33.2655531 118.857213,33.2655531 C120.343929,33.2655531 121.582276,32.9874103 122.574003,32.432002 C123.564855,31.8765938 124.358936,31.1667592 124.957121,30.3042532 C125.554431,29.4408697 125.969837,28.4906214 126.204213,27.452631 C126.435966,26.4146405 126.553154,25.3985855 126.553154,24.4027113 L126.553154,22.4732599 Z M127.516021,28.9223132 C127.516021,29.6830382 127.551877,30.4955312 127.625338,31.3571598 C127.697051,32.2196659 127.777508,32.9295004 127.864962,33.4849087 L126.946696,33.4849087 C126.888102,33.1927271 126.844375,32.8347388 126.815516,32.4091891 C126.786656,31.9862716 126.7508,31.5475604 126.706198,31.0930557 C126.662471,30.6411833 126.633611,30.1945754 126.618744,29.7558643 C126.603877,29.3171532 126.596881,28.9512681 126.596881,28.6590865 L126.4657,28.6590865 C125.882383,30.5016732 124.876663,31.8695744 123.448541,32.7610354 C122.019545,33.6524963 120.489102,34.0991043 118.857213,34.0991043 C118.041268,34.0991043 117.23232,33.9815297 116.430368,33.7481354 C115.628416,33.5129862 114.906921,33.1637722 114.265885,32.6952287 C113.624848,32.2275627 113.107121,31.6282833 112.713578,30.8965132 C112.32091,30.1664979 112.123265,29.302237 112.123265,28.3081176 C112.123265,26.8761646 112.494944,25.7188447 113.238302,24.8414224 C113.981659,23.9640002 114.906921,23.2848754 116.014962,22.8022932 C117.123003,22.3188336 118.310626,22.0055938 119.578707,21.8590643 C120.847663,21.7125348 122.005552,21.6397088 123.054999,21.6397088 L126.553154,21.6397088 L126.553154,20.0156002 C126.553154,17.7641348 125.954969,16.1189682 124.760349,15.0801003 C123.564855,14.0438646 122.005552,13.5235533 120.082442,13.5235533 C118.886073,13.5235533 117.771036,13.7429088 116.736456,14.1816199 C115.701877,14.620331 114.775741,15.2055716 113.960671,15.9364644 L113.435073,15.189778 C114.367331,14.372898 115.424648,13.7508056 116.605276,13.3252558 C117.786778,12.9023383 118.944667,12.6900022 120.082442,12.6900022 C122.384228,12.6900022 124.198896,13.2822621 125.525571,14.4667821 C126.852246,15.6513021 127.516021,17.5158243 127.516021,20.0603488 L127.516021,28.9223132 Z" id="Fill-32"></path>
                    </g>
                    <g id="Group-Copy-4">
                        <path d="M16.4500377,18.8761798 C17.0324805,16.8861862 18.0242074,15.3594715 19.4225949,14.2907712 C20.8227314,13.2247033 22.4108938,12.6894757 24.1897056,12.6894757 C25.5303735,12.6894757 26.6602775,12.9377862 27.5785432,13.4352846 C28.4959343,13.9336604 29.2244251,14.5917271 29.7648901,15.4094846 C30.3036059,16.2281195 30.6892775,17.1502903 30.9236539,18.1733646 C31.1562812,19.1981937 31.2734694,20.2353068 31.2734694,21.2890909 L31.2734694,33.4843822 L30.3114768,33.4843822 L30.3114768,21.3768331 C30.3114768,20.5573207 30.2161521,19.6798985 30.0263772,18.7445664 C29.8374768,17.8083569 29.5095248,16.9598896 29.0425211,16.1991646 C28.5763919,15.4393169 27.9493476,14.8023084 27.1631373,14.2907712 C26.3760524,13.7792341 25.3843255,13.5230268 24.1897056,13.5230268 C23.1393845,13.5230268 22.1555284,13.7502792 21.2381373,14.203029 C20.3198716,14.6566563 19.5179196,15.308581 18.8331557,16.1552935 C18.1475174,17.0046382 17.6009307,18.0347318 17.1933956,19.2482068 C16.784986,20.4634365 16.5803439,21.8444991 16.5803439,23.3940267 L16.5803439,33.4843822 L15.6192259,33.4843822 L15.6192259,21.3768331 C15.6192259,20.5573207 15.5387683,19.6798985 15.3778532,18.7445664 C15.2178126,17.8083569 14.9195949,16.9598896 14.4823255,16.1991646 C14.0450561,15.4393169 13.4398753,14.8023084 12.6676576,14.2907712 C11.8945653,13.7792341 10.9107093,13.5230268 9.71608933,13.5230268 C8.66664283,13.5230268 7.68278674,13.7502792 6.76452106,14.203029 C5.84625538,14.6566563 5.04430335,15.308581 4.35953951,16.1552935 C3.67477567,17.0046382 3.13431073,18.0347318 2.74164283,19.2482068 C2.3481004,20.4634365 2.15045464,21.8444991 2.15045464,23.3940267 L2.15045464,33.4843822 L1.18933656,33.4843822 L1.18933656,18.3927201 C1.18933656,18.0715836 1.18146571,17.6767436 1.16659855,17.2090775 C1.15260593,16.7405341 1.13773877,16.2649712 1.12374615,15.7832664 C1.108879,15.2998068 1.08701553,14.8391601 1.05728121,14.400449 C1.02842143,13.9617379 0.999561652,13.5958528 0.970701874,13.3036713 L1.93181995,13.3036713 C1.96155427,13.5958528 1.98341774,13.9617379 1.9982849,14.400449 C2.01227752,14.8391601 2.02714468,15.314723 2.0411373,15.8262601 C2.05600446,16.3377973 2.07087162,16.8352957 2.08573877,17.3187553 C2.09973139,17.8004601 2.10760224,18.2330293 2.10760224,18.6120757 L2.19505612,18.6120757 C2.48540298,17.6767436 2.89468711,16.8440699 3.41941036,16.1122998 C3.94413361,15.3814071 4.53444726,14.7601921 5.19035132,14.2477776 C5.84625538,13.7362404 6.559879,13.3475424 7.33297125,13.0843157 C8.10518896,12.8219665 8.89927014,12.6894757 9.71608933,12.6894757 C10.7655358,12.6894757 11.6759307,12.8509214 12.4490229,13.1729353 C13.2212406,13.4949493 13.8701484,13.9336604 14.3939971,14.4890687 C14.9195949,15.0444769 15.3411225,15.6955242 15.6629528,16.4413331 C15.983034,17.1862646 16.2156613,17.9987575 16.3617093,18.8761798 L16.4500377,18.8761798 Z" id="Fill-22"></path>
                        <path d="M50.4699447,22.3412956 C50.4402104,21.0251622 50.2137048,19.8266035 49.7921772,18.7438645 C49.3689004,17.6628803 48.7925794,16.7336902 48.0649631,15.9580489 C47.3355978,15.1832851 46.4610591,14.5831283 45.4413469,14.1602108 C44.4198856,13.7355385 43.2829853,13.5232023 42.0306458,13.5232023 C40.5141956,13.5232023 39.2172546,13.8381969 38.1380738,14.4664312 C37.0597676,15.0955429 36.177358,15.8703067 35.4934687,16.7924775 C34.8078303,17.7128934 34.3049705,18.6780578 33.9840148,19.6870934 C33.6630591,20.6961289 33.503893,21.5814479 33.503893,22.3412956 L50.4699447,22.3412956 Z M33.4601661,23.1748467 C33.4601661,24.4032378 33.6420701,25.6175901 34.0067528,26.8161489 C34.3705609,28.0155851 34.9250185,29.0904273 35.6675019,30.0406755 C36.4117343,30.9918012 37.3518635,31.7595457 38.4887639,32.3439089 C39.6256642,32.9291495 40.9663321,33.2213311 42.5107676,33.2213311 C44.0849373,33.2213311 45.4850738,32.9080913 46.7085535,32.2781022 C47.9337823,31.6498679 48.9972214,30.7355939 49.9014945,29.5361578 L50.600251,30.1503533 C49.6093986,31.4375317 48.4506347,32.4176123 47.124834,33.0897177 C45.7972842,33.7627006 44.259845,34.0987533 42.5107676,34.0987533 C41.0240517,34.0987533 39.6685166,33.8285072 38.4450369,33.2871377 C37.2206827,32.7466456 36.1633653,31.99294 35.274834,31.0277755 C34.3845535,30.0634885 33.6997897,28.9079234 33.2187934,27.5619578 C32.7386716,26.2177469 32.4972989,24.7542067 32.4972989,23.1748467 C32.4972989,21.654274 32.7456679,20.2503984 33.2424059,18.96322 C33.7391439,17.6769191 34.4186605,16.5661025 35.2809557,15.6290156 C36.1423764,14.6928061 37.1577159,13.9698102 38.3269742,13.4573956 C39.495358,12.9467359 40.7520701,12.6896512 42.0962362,12.6896512 C43.6739041,12.6896512 45.0469299,12.967794 46.2161882,13.5232023 C47.384572,14.079488 48.35531,14.8112581 49.1310259,15.7167578 C49.9049926,16.6240124 50.4821882,17.6541061 50.861738,18.8096711 C51.2421624,19.9661136 51.4319373,21.1427368 51.4319373,22.3412956 L51.4319373,23.1748467 L33.4601661,23.1748467 Z" id="Fill-24"></path>
                        <path d="M53.7059129,23.4380733 C53.7059129,24.7542067 53.9166768,26.0124301 54.3399535,27.2118663 C54.7623557,28.4113025 55.366662,29.4563123 56.1546214,30.3477733 C56.9417063,31.2409891 57.8958281,31.9490689 59.0187358,32.4763996 C60.1398945,33.0019755 61.4018539,33.2652022 62.8002414,33.2652022 C64.1417838,33.2652022 65.3731343,33.0019755 66.4960421,32.4763996 C67.6172008,31.9490689 68.5879388,31.2409891 69.4038834,30.3477733 C70.2198281,29.4563123 70.860865,28.4113025 71.3269941,27.2118663 C71.7939978,26.0124301 72.0274997,24.7401679 72.0274997,23.3942022 C72.0274997,22.0499914 71.7939978,20.7768518 71.3269941,19.5774156 C70.860865,18.3788568 70.2198281,17.333847 69.4038834,16.4406312 C68.5879388,15.5491702 67.6172008,14.8393356 66.4960421,14.3128823 C65.3731343,13.786429 64.1417838,13.5232023 62.8002414,13.5232023 C61.4018539,13.5232023 60.1398945,13.7943258 59.0187358,14.3348178 C57.8958281,14.8761873 56.9417063,15.6000607 56.1546214,16.5064378 C55.366662,17.4136924 54.7623557,18.4665991 54.3399535,19.6651578 C53.9166768,20.864594 53.7059129,22.12194 53.7059129,23.4380733 L53.7059129,23.4380733 Z M71.9828982,0.317997919 L72.9457653,0.317997919 L72.9457653,33.4845577 L71.9828982,33.4845577 L71.9828982,28.04454 L71.8525919,28.04454 C70.9780532,30.0345336 69.7318355,31.5401901 68.1139388,32.5632644 C66.4960421,33.5863387 64.7251011,34.0987533 62.8002414,34.0987533 C61.3423853,34.0987533 59.9947211,33.8285072 58.7554997,33.2871377 C57.5162783,32.7466456 56.4537137,32.0008368 55.5643078,31.0505885 C54.6740273,30.0994628 53.9822672,28.9737301 53.4872783,27.6716355 C52.9914148,26.3704184 52.7430458,24.9595235 52.7430458,23.4380733 C52.7430458,21.9183781 52.9914148,20.4987089 53.4872783,19.1825756 C53.9822672,17.8664423 54.6740273,16.7257934 55.5643078,15.7606289 C56.4537137,14.7954645 57.5162783,14.0435137 58.7554997,13.5021442 C59.9947211,12.9607746 61.3423853,12.6896512 62.8002414,12.6896512 C64.7251011,12.6896512 66.4960421,13.2020658 68.1139388,14.2251401 C69.7318355,15.2499692 70.9780532,16.7696645 71.8525919,18.7877356 L71.9828982,18.7877356 L71.9828982,0.317997919 Z" id="Fill-26"></path>
                        <path d="M88.4679535,28.2201999 C88.4679535,29.1274545 88.2930458,29.9381926 87.9432303,30.6541691 C87.5934148,31.3727779 87.1194148,31.9790767 86.5221048,32.4765751 C85.9247949,32.9731961 85.2321602,33.3539973 84.4450753,33.6154691 C83.6579904,33.8795732 82.8123115,34.012064 81.9089129,34.012064 C80.4221971,34.012064 79.0736583,33.7251469 77.8641712,33.1556999 C76.6538096,32.5862529 75.6568355,31.744805 74.868876,30.633111 L75.6568355,30.1057803 C77.113817,32.1536837 79.21271,33.176758 81.9526399,33.176758 C82.5936768,33.176758 83.2425845,33.0758545 83.8984886,32.8705377 C84.5543926,32.6660983 85.1517026,32.3598779 85.691293,31.9492443 C86.2300089,31.5403656 86.6672783,31.027951 87.0031011,30.4137555 C87.3380495,29.7995599 87.5059609,29.0976221 87.5059609,28.3088196 C87.5059609,27.3726101 87.2943225,26.611885 86.8719203,26.0266444 C86.4486436,25.4414038 85.916924,24.9737377 85.2767617,24.6218914 C84.6339757,24.2717999 83.9273484,23.9866377 83.1551307,23.7672822 C82.3829129,23.5479266 81.6614185,23.3505066 80.9906473,23.1750222 C80.2612819,22.9705828 79.5765181,22.7442079 78.9363557,22.4958974 C78.2935698,22.2467095 77.733865,21.9246955 77.2519941,21.5298555 C76.7709978,21.1350155 76.391448,20.6454139 76.1150938,20.0601733 C75.837865,19.4758101 75.6996879,18.74404 75.6996879,17.8666177 C75.6996879,16.9891955 75.8754701,16.2284705 76.2244111,15.5861974 C76.5742266,14.9421695 77.0403557,14.4086968 77.6245476,13.983147 C78.2069904,13.5602295 78.8698908,13.2382156 79.6132487,13.01886 C80.3574812,12.7995044 81.1069609,12.6898267 81.865186,12.6898267 C84.6051159,12.6898267 86.6602819,13.6699073 88.0306842,15.6283137 L87.1998724,16.1117733 C86.5291011,15.2343511 85.7717506,14.5833038 84.9260716,14.1603863 C84.0803926,13.735714 83.0598059,13.5233778 81.865186,13.5233778 C81.3107284,13.5233778 80.7282856,13.5962038 80.1161085,13.7427333 C79.5039314,13.8892628 78.9424775,14.1305539 78.4326214,14.4666067 C77.9218908,14.8026594 77.4994886,15.2501447 77.1645403,15.805553 C76.8287174,16.3600838 76.6616805,17.0330666 76.6616805,17.8218692 C76.6616805,18.6992914 76.7998576,19.4021066 77.0779609,19.92856 C77.3543152,20.4541359 77.7399867,20.8796856 78.2358502,21.2008222 C78.7308391,21.5228361 79.3290236,21.7930822 80.0295292,22.0124377 C80.7282856,22.2317933 81.5005033,22.4441295 82.3461823,22.6476914 C83.1332672,22.8538856 83.8984886,23.0951767 84.6418465,23.3733196 C85.386079,23.650585 86.0419831,23.9945345 86.6095587,24.4025358 C87.1780089,24.8131694 87.6301454,25.3247066 87.9650938,25.9380247 C88.3000421,26.5539751 88.4679535,27.3147002 88.4679535,28.2201999" id="Fill-28"></path>
                        <path d="M109.981257,23.4380733 C109.981257,22.12194 109.770493,20.864594 109.348965,19.6651578 C108.926563,18.4665991 108.323131,17.4136924 107.53867,16.5064378 C106.753334,15.6000607 105.800962,14.8761873 104.680678,14.3348178 C103.561268,13.7943258 102.303681,13.5232023 100.907917,13.5232023 C99.5707476,13.5232023 98.3411462,13.786429 97.2217366,14.3128823 C96.102327,14.8393356 95.1350871,15.5491702 94.3217661,16.4406312 C93.506696,17.333847 92.8665336,18.3788568 92.401279,19.5774156 C91.9360244,20.7768518 91.7042716,22.0499914 91.7042716,23.3942022 C91.7042716,24.7401679 91.9360244,26.0124301 92.401279,27.2118663 C92.8665336,28.4113025 93.506696,29.4563123 94.3217661,30.3477733 C95.1350871,31.2409891 96.102327,31.9490689 97.2217366,32.4763996 C98.3411462,33.0019755 99.5707476,33.2652022 100.907917,33.2652022 C102.303681,33.2652022 103.561268,33.0019755 104.680678,32.4763996 C105.800962,31.9490689 106.753334,31.2409891 107.53867,30.3477733 C108.323131,29.4563123 108.926563,28.4113025 109.348965,27.2118663 C109.770493,26.0124301 109.981257,24.7542067 109.981257,23.4380733 L109.981257,23.4380733 Z M91.8791794,18.7877356 C92.7510945,16.7696645 93.9946886,15.2499692 95.6082126,14.2251401 C97.2217366,13.2020658 98.9900539,12.6896512 100.909666,12.6896512 C102.39201,12.6896512 103.751917,12.9607746 104.988515,13.5021442 C106.224238,14.0435137 107.285928,14.7893225 108.173585,15.7386934 C109.059493,16.6898191 109.744257,17.8225712 110.223504,19.1387045 C110.702751,20.4548378 110.944124,21.8885457 110.944124,23.4380733 C110.944124,24.9595235 110.695755,26.3704184 110.201641,27.6716355 C109.707526,28.9737301 109.015766,30.0994628 108.129858,31.0505885 C107.242202,32.0008368 106.180511,32.7466456 104.944788,33.2871377 C103.70819,33.8285072 102.36315,34.0987533 100.909666,34.0987533 C99.9494229,34.0987533 99.0119174,33.96714 98.0954008,33.7039133 C97.1788842,33.4406866 96.3288325,33.0537434 95.5434967,32.5413288 C94.7581609,32.0306691 94.0445373,31.40068 93.406124,30.6548711 C92.7650871,29.9090622 92.2561056,29.0395368 91.8791794,28.04454 L91.747124,28.04454 L91.747124,44.0136243 L90.7414045,44.0136243 L90.7414045,13.3038467 L91.7427513,13.3038467 L91.7427513,18.7877356 L91.8791794,18.7877356 Z" id="Fill-30"></path>
                        <path d="M126.553154,22.4732599 L123.448541,22.4732599 C122.340501,22.4732599 121.175615,22.5381891 119.950386,22.6706799 C118.726032,22.8022932 117.603999,23.0734167 116.584287,23.4822954 C115.562825,23.8920516 114.725892,24.4764148 114.069988,25.2371399 C113.414084,25.9987423 113.086132,27.0218166 113.086132,28.3081176 C113.086132,29.2443271 113.267161,30.0261103 113.632718,30.6543446 C113.996527,31.2843338 114.462656,31.7888516 115.031106,32.1687754 C115.600431,32.5486992 116.225726,32.826842 116.912239,33.0023265 C117.596128,33.1769335 118.245036,33.2655531 118.857213,33.2655531 C120.343929,33.2655531 121.582276,32.9874103 122.574003,32.432002 C123.564855,31.8765938 124.358936,31.1667592 124.957121,30.3042532 C125.554431,29.4408697 125.969837,28.4906214 126.204213,27.452631 C126.435966,26.4146405 126.553154,25.3985855 126.553154,24.4027113 L126.553154,22.4732599 Z M127.516021,28.9223132 C127.516021,29.6830382 127.551877,30.4955312 127.625338,31.3571598 C127.697051,32.2196659 127.777508,32.9295004 127.864962,33.4849087 L126.946696,33.4849087 C126.888102,33.1927271 126.844375,32.8347388 126.815516,32.4091891 C126.786656,31.9862716 126.7508,31.5475604 126.706198,31.0930557 C126.662471,30.6411833 126.633611,30.1945754 126.618744,29.7558643 C126.603877,29.3171532 126.596881,28.9512681 126.596881,28.6590865 L126.4657,28.6590865 C125.882383,30.5016732 124.876663,31.8695744 123.448541,32.7610354 C122.019545,33.6524963 120.489102,34.0991043 118.857213,34.0991043 C118.041268,34.0991043 117.23232,33.9815297 116.430368,33.7481354 C115.628416,33.5129862 114.906921,33.1637722 114.265885,32.6952287 C113.624848,32.2275627 113.107121,31.6282833 112.713578,30.8965132 C112.32091,30.1664979 112.123265,29.302237 112.123265,28.3081176 C112.123265,26.8761646 112.494944,25.7188447 113.238302,24.8414224 C113.981659,23.9640002 114.906921,23.2848754 116.014962,22.8022932 C117.123003,22.3188336 118.310626,22.0055938 119.578707,21.8590643 C120.847663,21.7125348 122.005552,21.6397088 123.054999,21.6397088 L126.553154,21.6397088 L126.553154,20.0156002 C126.553154,17.7641348 125.954969,16.1189682 124.760349,15.0801003 C123.564855,14.0438646 122.005552,13.5235533 120.082442,13.5235533 C118.886073,13.5235533 117.771036,13.7429088 116.736456,14.1816199 C115.701877,14.620331 114.775741,15.2055716 113.960671,15.9364644 L113.435073,15.189778 C114.367331,14.372898 115.424648,13.7508056 116.605276,13.3252558 C117.786778,12.9023383 118.944667,12.6900022 120.082442,12.6900022 C122.384228,12.6900022 124.198896,13.2822621 125.525571,14.4667821 C126.852246,15.6513021 127.516021,17.5158243 127.516021,20.0603488 L127.516021,28.9223132 Z" id="Fill-32"></path>
                    </g>
                </g>
                <path d="M142.894559,72.7445315 C142.894559,73.8070898 142.037511,74.667841 140.97757,74.667841 C139.918503,74.667841 139.058832,73.8070898 139.058832,72.7445315 C139.058832,71.6810958 139.918503,70.8203446 140.97757,70.8203446 C142.037511,70.8203446 142.894559,71.6810958 142.894559,72.7445315" id="Fill-34" fill="#EC0810"></path>
                <path d="M174.000503,72.7445315 C174.000503,73.8070898 173.143455,74.667841 172.084388,74.667841 C171.024447,74.667841 170.164776,73.8070898 170.164776,72.7445315 C170.164776,71.6810958 171.024447,70.8203446 172.084388,70.8203446 C173.143455,70.8203446 174.000503,71.6810958 174.000503,72.7445315" id="Fill-36" fill="#EC0810"></path>
                <path d="M205.107234,72.7445315 C205.107234,73.8070898 204.249311,74.667841 203.190245,74.667841 C202.131178,74.667841 201.270632,73.8070898 201.270632,72.7445315 C201.270632,71.6810958 202.131178,70.8203446 203.190245,70.8203446 C204.249311,70.8203446 205.107234,71.6810958 205.107234,72.7445315" id="Fill-38" fill="#EC0810"></path>
                <path d="M236.213177,72.7445315 C236.213177,73.8070898 235.35613,74.667841 234.296189,74.667841 C233.237122,74.667841 232.377451,73.8070898 232.377451,72.7445315 C232.377451,71.6810958 233.237122,70.8203446 234.296189,70.8203446 C235.35613,70.8203446 236.213177,71.6810958 236.213177,72.7445315" id="Fill-40" fill="#EC0810"></path>
                <path d="M111.788615,72.7445315 C111.788615,73.8070898 110.930692,74.667841 109.871626,74.667841 C108.812559,74.667841 107.952013,73.8070898 107.952013,72.7445315 C107.952013,71.6810958 108.812559,70.8203446 109.871626,70.8203446 C110.930692,70.8203446 111.788615,71.6810958 111.788615,72.7445315" id="Fill-42" fill="#EC0810"></path>
            </g>
        </g>
    </g>
</svg>